solid OpenSCAD_Model
  facet normal -0.000000 0.000000 -1.000000
    outer loop
      vertex -15.000000 0.000000 -10.000000
      vertex -14.265848 4.635255 -10.000000
      vertex -14.265848 -4.635255 -10.000000
    endloop
  endfacet
  facet normal 0.000000 -0.000000 -1.000000
    outer loop
      vertex -14.265848 -4.635255 -10.000000
      vertex -14.265848 4.635255 -10.000000
      vertex -12.135255 8.816779 -10.000000
    endloop
  endfacet
  facet normal 0.000000 0.000000 -1.000000
    outer loop
      vertex -14.265848 -4.635255 -10.000000
      vertex -12.135255 8.816779 -10.000000
      vertex -8.816779 12.135255 -10.000000
    endloop
  endfacet
  facet normal 0.000000 0.000000 -1.000000
    outer loop
      vertex -14.265848 -4.635255 -10.000000
      vertex -8.816779 12.135255 -10.000000
      vertex -4.635255 14.265848 -10.000000
    endloop
  endfacet
  facet normal 0.000000 0.000000 -1.000000
    outer loop
      vertex -14.265848 -4.635255 -10.000000
      vertex -4.635255 14.265848 -10.000000
      vertex 0.000000 15.000000 -10.000000
    endloop
  endfacet
  facet normal 0.000000 0.000000 -1.000000
    outer loop
      vertex -14.265848 -4.635255 -10.000000
      vertex 0.000000 15.000000 -10.000000
      vertex 4.635255 14.265848 -10.000000
    endloop
  endfacet
  facet normal 0.000000 0.000000 -1.000000
    outer loop
      vertex -14.265848 -4.635255 -10.000000
      vertex 4.635255 14.265848 -10.000000
      vertex 8.816779 12.135255 -10.000000
    endloop
  endfacet
  facet normal 0.000000 0.000000 -1.000000
    outer loop
      vertex 1.236068 3.804226 -10.000000
      vertex 8.816779 12.135255 -10.000000
      vertex 12.135255 8.816779 -10.000000
    endloop
  endfacet
  facet normal 0.000000 0.000000 -1.000000
    outer loop
      vertex 4.650000 2.750000 -10.000000
      vertex 12.135255 8.816779 -10.000000
      vertex 14.265848 4.635255 -10.000000
    endloop
  endfacet
  facet normal -0.000000 0.000000 -1.000000
    outer loop
      vertex 7.350000 -2.750000 -10.000000
      vertex 15.000000 0.000000 -10.000000
      vertex 14.265848 -4.635255 -10.000000
    endloop
  endfacet
  facet normal 0.000000 0.000000 -1.000000
    outer loop
      vertex -14.265848 -4.635255 -10.000000
      vertex 14.265848 -4.635255 -10.000000
      vertex 12.135255 -8.816779 -10.000000
    endloop
  endfacet
  facet normal 0.000000 0.000000 -1.000000
    outer loop
      vertex -14.265848 -4.635255 -10.000000
      vertex 12.135255 -8.816779 -10.000000
      vertex 8.816779 -12.135255 -10.000000
    endloop
  endfacet
  facet normal 0.000000 0.000000 -1.000000
    outer loop
      vertex -14.265848 -4.635255 -10.000000
      vertex 8.816779 -12.135255 -10.000000
      vertex 4.635255 -14.265848 -10.000000
    endloop
  endfacet
  facet normal 0.000000 0.000000 -1.000000
    outer loop
      vertex -14.265848 -4.635255 -10.000000
      vertex 4.635255 -14.265848 -10.000000
      vertex 0.000000 -15.000000 -10.000000
    endloop
  endfacet
  facet normal 0.000000 0.000000 -1.000000
    outer loop
      vertex -14.265848 -4.635255 -10.000000
      vertex 0.000000 -15.000000 -10.000000
      vertex -4.635255 -14.265848 -10.000000
    endloop
  endfacet
  facet normal 0.000000 0.000000 -1.000000
    outer loop
      vertex -14.265848 -4.635255 -10.000000
      vertex -4.635255 -14.265848 -10.000000
      vertex -8.816779 -12.135255 -10.000000
    endloop
  endfacet
  facet normal 0.000000 0.000000 -1.000000
    outer loop
      vertex -14.265848 -4.635255 -10.000000
      vertex -8.816779 -12.135255 -10.000000
      vertex -12.135255 -8.816779 -10.000000
    endloop
  endfacet
  facet normal 0.000000 0.000000 -1.000000
    outer loop
      vertex -3.804226 -1.236068 -10.000000
      vertex -14.265848 -4.635255 -10.000000
      vertex -4.000000 0.000000 -10.000000
    endloop
  endfacet
  facet normal 0.000000 0.000000 -1.000000
    outer loop
      vertex -2.351141 -3.236068 -10.000000
      vertex -14.265848 -4.635255 -10.000000
      vertex -3.236068 -2.351141 -10.000000
    endloop
  endfacet
  facet normal 0.000000 0.000000 -1.000000
    outer loop
      vertex -14.265848 -4.635255 -10.000000
      vertex -3.804226 -1.236068 -10.000000
      vertex -3.236068 -2.351141 -10.000000
    endloop
  endfacet
  facet normal 0.000000 0.000000 -1.000000
    outer loop
      vertex 1.236068 -3.804226 -10.000000
      vertex 14.265848 -4.635255 -10.000000
      vertex 0.000000 -4.000000 -10.000000
    endloop
  endfacet
  facet normal 0.000000 0.000000 -1.000000
    outer loop
      vertex -14.265848 -4.635255 -10.000000
      vertex -2.351141 -3.236068 -10.000000
      vertex -1.236068 -3.804226 -10.000000
    endloop
  endfacet
  facet normal 0.000000 0.000000 -1.000000
    outer loop
      vertex -14.265848 -4.635255 -10.000000
      vertex -1.236068 -3.804226 -10.000000
      vertex 0.000000 -4.000000 -10.000000
    endloop
  endfacet
  facet normal -0.000000 0.000000 -1.000000
    outer loop
      vertex -14.265848 -4.635255 -10.000000
      vertex 0.000000 -4.000000 -10.000000
      vertex 14.265848 -4.635255 -10.000000
    endloop
  endfacet
  facet normal 0.000000 0.000000 -1.000000
    outer loop
      vertex 2.351141 -3.236068 -10.000000
      vertex 14.265848 -4.635255 -10.000000
      vertex 1.236068 -3.804226 -10.000000
    endloop
  endfacet
  facet normal -0.000000 0.000000 -1.000000
    outer loop
      vertex 2.351141 3.236068 -10.000000
      vertex 12.135255 8.816779 -10.000000
      vertex 3.236068 2.351141 -10.000000
    endloop
  endfacet
  facet normal -0.000000 0.000000 -1.000000
    outer loop
      vertex 1.236068 3.804226 -10.000000
      vertex 12.135255 8.816779 -10.000000
      vertex 2.351141 3.236068 -10.000000
    endloop
  endfacet
  facet normal 0.000000 0.000000 -1.000000
    outer loop
      vertex 4.650000 -2.750000 -10.000000
      vertex 3.804226 -1.236068 -10.000000
      vertex 4.000000 0.000000 -10.000000
    endloop
  endfacet
  facet normal -0.000000 0.000000 -1.000000
    outer loop
      vertex 0.000000 4.000000 -10.000000
      vertex 8.816779 12.135255 -10.000000
      vertex 1.236068 3.804226 -10.000000
    endloop
  endfacet
  facet normal 0.000000 0.000000 -1.000000
    outer loop
      vertex 4.650000 -2.750000 -10.000000
      vertex 3.236068 -2.351141 -10.000000
      vertex 3.804226 -1.236068 -10.000000
    endloop
  endfacet
  facet normal 0.000000 0.000000 -1.000000
    outer loop
      vertex -1.236068 3.804226 -10.000000
      vertex 8.816779 12.135255 -10.000000
      vertex 0.000000 4.000000 -10.000000
    endloop
  endfacet
  facet normal 0.000000 0.000000 -1.000000
    outer loop
      vertex -2.351141 3.236068 -10.000000
      vertex 8.816779 12.135255 -10.000000
      vertex -1.236068 3.804226 -10.000000
    endloop
  endfacet
  facet normal 0.000000 0.000000 -1.000000
    outer loop
      vertex -14.265848 -4.635255 -10.000000
      vertex 8.816779 12.135255 -10.000000
      vertex -2.351141 3.236068 -10.000000
    endloop
  endfacet
  facet normal 0.000000 -0.000000 -1.000000
    outer loop
      vertex -3.804226 1.236068 -10.000000
      vertex -14.265848 -4.635255 -10.000000
      vertex -3.236068 2.351141 -10.000000
    endloop
  endfacet
  facet normal -0.000000 0.000000 -1.000000
    outer loop
      vertex 4.650000 2.750000 -10.000000
      vertex 14.265848 4.635255 -10.000000
      vertex 7.350000 2.750000 -10.000000
    endloop
  endfacet
  facet normal 0.000000 0.000000 -1.000000
    outer loop
      vertex 3.236068 2.351141 -10.000000
      vertex 12.135255 8.816779 -10.000000
      vertex 4.650000 2.750000 -10.000000
    endloop
  endfacet
  facet normal 0.000000 0.000000 -1.000000
    outer loop
      vertex 4.650000 -2.750000 -10.000000
      vertex 2.351141 -3.236068 -10.000000
      vertex 3.236068 -2.351141 -10.000000
    endloop
  endfacet
  facet normal 0.000000 0.000000 -1.000000
    outer loop
      vertex 7.350000 2.750000 -10.000000
      vertex 15.000000 0.000000 -10.000000
      vertex 7.350000 -2.750000 -10.000000
    endloop
  endfacet
  facet normal -0.000000 0.000000 -1.000000
    outer loop
      vertex 2.351141 -3.236068 -10.000000
      vertex 4.650000 -2.750000 -10.000000
      vertex 14.265848 -4.635255 -10.000000
    endloop
  endfacet
  facet normal 0.000000 0.000000 -1.000000
    outer loop
      vertex 4.650000 -2.750000 -10.000000
      vertex 7.350000 -2.750000 -10.000000
      vertex 14.265848 -4.635255 -10.000000
    endloop
  endfacet
  facet normal 0.000000 -0.000000 -1.000000
    outer loop
      vertex -4.000000 0.000000 -10.000000
      vertex -14.265848 -4.635255 -10.000000
      vertex -3.804226 1.236068 -10.000000
    endloop
  endfacet
  facet normal 0.000000 -0.000000 -1.000000
    outer loop
      vertex -3.236068 2.351141 -10.000000
      vertex -14.265848 -4.635255 -10.000000
      vertex -2.351141 3.236068 -10.000000
    endloop
  endfacet
  facet normal 0.000000 0.000000 -1.000000
    outer loop
      vertex 4.650000 -2.750000 -10.000000
      vertex 4.000000 0.000000 -10.000000
      vertex 3.804226 1.236068 -10.000000
    endloop
  endfacet
  facet normal 0.000000 -0.000000 -1.000000
    outer loop
      vertex 3.804226 1.236068 -10.000000
      vertex 3.236068 2.351141 -10.000000
      vertex 4.650000 2.750000 -10.000000
    endloop
  endfacet
  facet normal 0.000000 0.000000 -1.000000
    outer loop
      vertex 4.650000 -2.750000 -10.000000
      vertex 3.804226 1.236068 -10.000000
      vertex 4.650000 2.750000 -10.000000
    endloop
  endfacet
  facet normal -0.000000 0.000000 -1.000000
    outer loop
      vertex 7.350000 2.750000 -10.000000
      vertex 14.265848 4.635255 -10.000000
      vertex 15.000000 0.000000 -10.000000
    endloop
  endfacet
  facet normal -0.987688 0.156434 0.000000
    outer loop
      vertex -15.000000 0.000000 -10.000000
      vertex -15.000000 0.000000 9.750000
      vertex -14.265848 4.635255 -10.000000
    endloop
  endfacet
  facet normal -0.987688 0.156434 0.000000
    outer loop
      vertex -14.265848 4.635255 -10.000000
      vertex -15.000000 0.000000 9.750000
      vertex -14.265848 4.635255 9.750000
    endloop
  endfacet
  facet normal -0.987688 -0.156434 -0.000000
    outer loop
      vertex -15.000000 0.000000 -10.000000
      vertex -14.265848 -4.635255 -10.000000
      vertex -15.000000 0.000000 9.750000
    endloop
  endfacet
  facet normal -0.987688 -0.156434 0.000000
    outer loop
      vertex -15.000000 0.000000 9.750000
      vertex -14.265848 -4.635255 -10.000000
      vertex -14.265848 -4.635255 9.750000
    endloop
  endfacet
  facet normal -0.891007 -0.453991 -0.000000
    outer loop
      vertex -14.265848 -4.635255 -10.000000
      vertex -12.135255 -8.816779 -10.000000
      vertex -14.265848 -4.635255 9.750000
    endloop
  endfacet
  facet normal -0.891007 -0.453991 0.000000
    outer loop
      vertex -14.265848 -4.635255 9.750000
      vertex -12.135255 -8.816779 -10.000000
      vertex -12.135255 -8.816779 9.750000
    endloop
  endfacet
  facet normal -0.707107 -0.707107 0.000000
    outer loop
      vertex -12.135255 -8.816779 9.750000
      vertex -12.135255 -8.816779 -10.000000
      vertex -8.816779 -12.135255 -10.000000
    endloop
  endfacet
  facet normal -0.707107 -0.707107 0.000000
    outer loop
      vertex -8.816779 -12.135255 9.750000
      vertex -12.135255 -8.816779 9.750000
      vertex -8.816779 -12.135255 -10.000000
    endloop
  endfacet
  facet normal -0.453991 -0.891007 0.000000
    outer loop
      vertex -8.816779 -12.135255 9.750000
      vertex -8.816779 -12.135255 -10.000000
      vertex -4.635255 -14.265848 -10.000000
    endloop
  endfacet
  facet normal -0.453991 -0.891007 0.000000
    outer loop
      vertex -4.635255 -14.265848 9.750000
      vertex -8.816779 -12.135255 9.750000
      vertex -4.635255 -14.265848 -10.000000
    endloop
  endfacet
  facet normal -0.156434 -0.987688 0.000000
    outer loop
      vertex -4.635255 -14.265848 9.750000
      vertex -4.635255 -14.265848 -10.000000
      vertex 0.000000 -15.000000 -10.000000
    endloop
  endfacet
  facet normal -0.156434 -0.987688 0.000000
    outer loop
      vertex 0.000000 -15.000000 9.750000
      vertex -4.635255 -14.265848 9.750000
      vertex 0.000000 -15.000000 -10.000000
    endloop
  endfacet
  facet normal 0.156434 -0.987688 0.000000
    outer loop
      vertex 0.000000 -15.000000 9.750000
      vertex 0.000000 -15.000000 -10.000000
      vertex 4.635255 -14.265848 -10.000000
    endloop
  endfacet
  facet normal 0.156434 -0.987688 0.000000
    outer loop
      vertex 4.635255 -14.265848 9.750000
      vertex 0.000000 -15.000000 9.750000
      vertex 4.635255 -14.265848 -10.000000
    endloop
  endfacet
  facet normal 0.453991 -0.891007 0.000000
    outer loop
      vertex 4.635255 -14.265848 9.750000
      vertex 4.635255 -14.265848 -10.000000
      vertex 8.816779 -12.135255 -10.000000
    endloop
  endfacet
  facet normal 0.453991 -0.891007 0.000000
    outer loop
      vertex 8.816779 -12.135255 9.750000
      vertex 4.635255 -14.265848 9.750000
      vertex 8.816779 -12.135255 -10.000000
    endloop
  endfacet
  facet normal 0.707107 -0.707107 0.000000
    outer loop
      vertex 8.816779 -12.135255 9.750000
      vertex 8.816779 -12.135255 -10.000000
      vertex 12.135255 -8.816779 -10.000000
    endloop
  endfacet
  facet normal 0.707107 -0.707107 0.000000
    outer loop
      vertex 12.135255 -8.816779 9.750000
      vertex 8.816779 -12.135255 9.750000
      vertex 12.135255 -8.816779 -10.000000
    endloop
  endfacet
  facet normal 0.891007 -0.453991 0.000000
    outer loop
      vertex 12.135255 -8.816779 9.750000
      vertex 12.135255 -8.816779 -10.000000
      vertex 14.265848 -4.635255 -10.000000
    endloop
  endfacet
  facet normal 0.891007 -0.453991 0.000000
    outer loop
      vertex 14.265848 -4.635255 9.750000
      vertex 12.135255 -8.816779 9.750000
      vertex 14.265848 -4.635255 -10.000000
    endloop
  endfacet
  facet normal 0.987688 -0.156434 0.000000
    outer loop
      vertex 14.774051 -1.426585 -5.463525
      vertex 14.265848 -4.635255 -10.000000
      vertex 15.000000 0.000000 -10.000000
    endloop
  endfacet
  facet normal 0.987688 -0.156434 0.000000
    outer loop
      vertex 14.774051 -1.426585 -4.536475
      vertex 14.838239 -1.021322 -3.978678
      vertex 14.832008 -1.060660 -3.939340
    endloop
  endfacet
  facet normal 0.987688 -0.156434 0.000000
    outer loop
      vertex 15.000000 0.000000 -6.500000
      vertex 14.860356 -0.881678 -6.213525
      vertex 15.000000 0.000000 -10.000000
    endloop
  endfacet
  facet normal 0.987688 -0.156434 0.000000
    outer loop
      vertex 14.265848 -4.635255 9.750000
      vertex 14.265848 -4.635255 -10.000000
      vertex 14.774051 -1.426585 -5.463525
    endloop
  endfacet
  facet normal 0.987688 -0.156434 0.000000
    outer loop
      vertex 14.774051 -1.426585 -4.536475
      vertex 14.832008 -1.060660 -3.939340
      vertex 14.265848 -4.635255 9.750000
    endloop
  endfacet
  facet normal 0.987688 -0.156434 0.000000
    outer loop
      vertex 14.265848 -4.635255 9.750000
      vertex 14.774051 -1.426585 -5.463525
      vertex 14.774051 -1.426585 -4.536475
    endloop
  endfacet
  facet normal 0.987688 -0.156434 -0.000000
    outer loop
      vertex 15.000000 0.000000 -3.379375
      vertex 14.265848 -4.635255 9.750000
      vertex 14.920698 -0.500695 -3.379375
    endloop
  endfacet
  facet normal 0.987688 -0.156434 0.000000
    outer loop
      vertex 15.000000 0.000000 9.750000
      vertex 14.265848 -4.635255 9.750000
      vertex 15.000000 0.000000 -3.379375
    endloop
  endfacet
  facet normal 0.987688 -0.156434 -0.000000
    outer loop
      vertex 14.832008 -1.060660 -3.939340
      vertex 14.920698 -0.500695 -3.379375
      vertex 14.265848 -4.635255 9.750000
    endloop
  endfacet
  facet normal 0.987688 -0.156434 -0.000000
    outer loop
      vertex 14.860356 -0.881678 -6.213525
      vertex 14.774051 -1.426585 -5.463525
      vertex 15.000000 0.000000 -10.000000
    endloop
  endfacet
  facet normal 0.987688 0.156434 0.000000
    outer loop
      vertex 14.774051 1.426585 -4.536475
      vertex 14.265848 4.635255 -10.000000
      vertex 14.265848 4.635255 9.750000
    endloop
  endfacet
  facet normal 0.987688 0.156434 -0.000000
    outer loop
      vertex 14.774051 1.426585 -5.463525
      vertex 14.860356 0.881678 -6.213525
      vertex 15.000000 0.000000 -10.000000
    endloop
  endfacet
  facet normal 0.987688 0.156434 -0.000000
    outer loop
      vertex 15.000000 0.000000 9.750000
      vertex 15.000000 0.000000 -3.379375
      vertex 14.265848 4.635255 9.750000
    endloop
  endfacet
  facet normal 0.987688 0.156434 -0.000000
    outer loop
      vertex 15.000000 0.000000 -3.379375
      vertex 14.920698 0.500695 -3.379375
      vertex 14.265848 4.635255 9.750000
    endloop
  endfacet
  facet normal 0.987688 0.156434 -0.000000
    outer loop
      vertex 14.920698 0.500695 -3.379375
      vertex 14.832008 1.060660 -3.939340
      vertex 14.265848 4.635255 9.750000
    endloop
  endfacet
  facet normal 0.987688 0.156434 0.000000
    outer loop
      vertex 14.774051 1.426585 -5.463525
      vertex 14.265848 4.635255 -10.000000
      vertex 14.774051 1.426585 -4.536475
    endloop
  endfacet
  facet normal 0.987688 0.156434 0.000000
    outer loop
      vertex 15.000000 0.000000 -10.000000
      vertex 14.265848 4.635255 -10.000000
      vertex 14.774051 1.426585 -5.463525
    endloop
  endfacet
  facet normal 0.987688 0.156434 0.000000
    outer loop
      vertex 14.860356 0.881678 -6.213525
      vertex 15.000000 0.000000 -6.500000
      vertex 15.000000 0.000000 -10.000000
    endloop
  endfacet
  facet normal 0.987688 0.156434 0.000000
    outer loop
      vertex 14.832008 1.060660 -3.939340
      vertex 14.774051 1.426585 -4.536475
      vertex 14.265848 4.635255 9.750000
    endloop
  endfacet
  facet normal 0.987688 0.156434 0.000000
    outer loop
      vertex 14.838239 1.021322 -3.978678
      vertex 14.774051 1.426585 -4.536475
      vertex 14.832008 1.060660 -3.939340
    endloop
  endfacet
  facet normal 0.891007 0.453991 0.000000
    outer loop
      vertex 14.265848 4.635255 -10.000000
      vertex 12.135255 8.816779 -10.000000
      vertex 12.135255 8.816779 9.750000
    endloop
  endfacet
  facet normal 0.891007 0.453991 -0.000000
    outer loop
      vertex 14.265848 4.635255 9.750000
      vertex 14.265848 4.635255 -10.000000
      vertex 12.135255 8.816779 9.750000
    endloop
  endfacet
  facet normal 0.707107 0.707107 0.000000
    outer loop
      vertex 8.816779 12.135255 -10.000000
      vertex 8.816779 12.135255 9.750000
      vertex 12.135255 8.816779 -10.000000
    endloop
  endfacet
  facet normal 0.707107 0.707107 0.000000
    outer loop
      vertex 12.135255 8.816779 -10.000000
      vertex 8.816779 12.135255 9.750000
      vertex 12.135255 8.816779 9.750000
    endloop
  endfacet
  facet normal 0.453991 0.891007 0.000000
    outer loop
      vertex 4.635255 14.265848 -10.000000
      vertex 4.635255 14.265848 9.750000
      vertex 8.816779 12.135255 -10.000000
    endloop
  endfacet
  facet normal 0.453991 0.891007 0.000000
    outer loop
      vertex 8.816779 12.135255 -10.000000
      vertex 4.635255 14.265848 9.750000
      vertex 8.816779 12.135255 9.750000
    endloop
  endfacet
  facet normal 0.156434 0.987688 0.000000
    outer loop
      vertex 0.000000 15.000000 -10.000000
      vertex 0.000000 15.000000 9.750000
      vertex 4.635255 14.265848 -10.000000
    endloop
  endfacet
  facet normal 0.156434 0.987688 0.000000
    outer loop
      vertex 4.635255 14.265848 -10.000000
      vertex 0.000000 15.000000 9.750000
      vertex 4.635255 14.265848 9.750000
    endloop
  endfacet
  facet normal -0.156434 0.987688 0.000000
    outer loop
      vertex -4.635255 14.265848 -10.000000
      vertex -4.635255 14.265848 9.750000
      vertex 0.000000 15.000000 -10.000000
    endloop
  endfacet
  facet normal -0.156434 0.987688 0.000000
    outer loop
      vertex 0.000000 15.000000 -10.000000
      vertex -4.635255 14.265848 9.750000
      vertex 0.000000 15.000000 9.750000
    endloop
  endfacet
  facet normal -0.453991 0.891007 0.000000
    outer loop
      vertex -8.816779 12.135255 -10.000000
      vertex -8.816779 12.135255 9.750000
      vertex -4.635255 14.265848 -10.000000
    endloop
  endfacet
  facet normal -0.453991 0.891007 0.000000
    outer loop
      vertex -4.635255 14.265848 -10.000000
      vertex -8.816779 12.135255 9.750000
      vertex -4.635255 14.265848 9.750000
    endloop
  endfacet
  facet normal -0.707107 0.707107 0.000000
    outer loop
      vertex -12.135255 8.816779 -10.000000
      vertex -12.135255 8.816779 9.750000
      vertex -8.816779 12.135255 -10.000000
    endloop
  endfacet
  facet normal -0.707107 0.707107 0.000000
    outer loop
      vertex -8.816779 12.135255 -10.000000
      vertex -12.135255 8.816779 9.750000
      vertex -8.816779 12.135255 9.750000
    endloop
  endfacet
  facet normal -0.891007 0.453991 0.000000
    outer loop
      vertex -14.265848 4.635255 -10.000000
      vertex -14.265848 4.635255 9.750000
      vertex -12.135255 8.816779 -10.000000
    endloop
  endfacet
  facet normal -0.891007 0.453991 0.000000
    outer loop
      vertex -12.135255 8.816779 -10.000000
      vertex -14.265848 4.635255 9.750000
      vertex -12.135255 8.816779 9.750000
    endloop
  endfacet
  facet normal 0.987688 -0.156435 0.000000
    outer loop
      vertex -3.804226 1.236068 -10.000000
      vertex -3.804226 1.236068 0.000000
      vertex -4.000000 0.000000 0.000000
    endloop
  endfacet
  facet normal 0.987688 -0.156435 0.000000
    outer loop
      vertex -4.000000 0.000000 -10.000000
      vertex -3.804226 1.236068 -10.000000
      vertex -4.000000 0.000000 0.000000
    endloop
  endfacet
  facet normal 0.987688 0.156435 0.000000
    outer loop
      vertex -4.000000 0.000000 0.000000
      vertex -3.804226 -1.236068 0.000000
      vertex -3.804226 -1.236068 -10.000000
    endloop
  endfacet
  facet normal 0.987688 0.156435 0.000000
    outer loop
      vertex -4.000000 0.000000 -10.000000
      vertex -4.000000 0.000000 0.000000
      vertex -3.804226 -1.236068 -10.000000
    endloop
  endfacet
  facet normal 0.891007 -0.453990 0.000000
    outer loop
      vertex -3.236068 2.351141 -10.000000
      vertex -3.236068 2.351141 0.000000
      vertex -3.804226 1.236068 0.000000
    endloop
  endfacet
  facet normal 0.891007 -0.453990 0.000000
    outer loop
      vertex -3.804226 1.236068 -10.000000
      vertex -3.236068 2.351141 -10.000000
      vertex -3.804226 1.236068 0.000000
    endloop
  endfacet
  facet normal 0.707107 -0.707107 0.000000
    outer loop
      vertex -2.351141 3.236068 -10.000000
      vertex -2.351141 3.236068 0.000000
      vertex -3.236068 2.351141 0.000000
    endloop
  endfacet
  facet normal 0.707107 -0.707107 0.000000
    outer loop
      vertex -3.236068 2.351141 -10.000000
      vertex -2.351141 3.236068 -10.000000
      vertex -3.236068 2.351141 0.000000
    endloop
  endfacet
  facet normal 0.453990 -0.891007 0.000000
    outer loop
      vertex -1.236068 3.804226 -10.000000
      vertex -1.236068 3.804226 0.000000
      vertex -2.351141 3.236068 0.000000
    endloop
  endfacet
  facet normal 0.453990 -0.891007 0.000000
    outer loop
      vertex -2.351141 3.236068 -10.000000
      vertex -1.236068 3.804226 -10.000000
      vertex -2.351141 3.236068 0.000000
    endloop
  endfacet
  facet normal 0.156435 -0.987688 0.000000
    outer loop
      vertex 0.000000 4.000000 -10.000000
      vertex 0.000000 4.000000 0.000000
      vertex -1.236068 3.804226 0.000000
    endloop
  endfacet
  facet normal 0.156435 -0.987688 0.000000
    outer loop
      vertex -1.236068 3.804226 -10.000000
      vertex 0.000000 4.000000 -10.000000
      vertex -1.236068 3.804226 0.000000
    endloop
  endfacet
  facet normal -0.156435 -0.987688 -0.000000
    outer loop
      vertex 1.236068 3.804226 -10.000000
      vertex 1.236068 3.804226 0.000000
      vertex 0.000000 4.000000 0.000000
    endloop
  endfacet
  facet normal -0.156435 -0.987688 -0.000000
    outer loop
      vertex 0.000000 4.000000 -10.000000
      vertex 1.236068 3.804226 -10.000000
      vertex 0.000000 4.000000 0.000000
    endloop
  endfacet
  facet normal -0.453990 -0.891007 -0.000000
    outer loop
      vertex 2.351141 3.236068 -10.000000
      vertex 2.351141 3.236068 0.000000
      vertex 1.236068 3.804226 0.000000
    endloop
  endfacet
  facet normal -0.453990 -0.891007 -0.000000
    outer loop
      vertex 1.236068 3.804226 -10.000000
      vertex 2.351141 3.236068 -10.000000
      vertex 1.236068 3.804226 0.000000
    endloop
  endfacet
  facet normal -0.707107 -0.707107 -0.000000
    outer loop
      vertex 3.236068 2.351141 -10.000000
      vertex 3.236068 2.351141 0.000000
      vertex 2.351141 3.236068 0.000000
    endloop
  endfacet
  facet normal -0.707107 -0.707107 -0.000000
    outer loop
      vertex 2.351141 3.236068 -10.000000
      vertex 3.236068 2.351141 -10.000000
      vertex 2.351141 3.236068 0.000000
    endloop
  endfacet
  facet normal -0.891007 -0.453990 0.000000
    outer loop
      vertex 3.804226 1.236068 -5.725749
      vertex 3.707153 1.426585 -5.463525
      vertex 3.804226 1.236068 -10.000000
    endloop
  endfacet
  facet normal -0.891007 -0.453990 -0.000000
    outer loop
      vertex 3.804226 1.236068 -10.000000
      vertex 3.707153 1.426585 -5.463525
      vertex 3.236068 2.351141 0.000000
    endloop
  endfacet
  facet normal -0.891007 -0.453990 0.000000
    outer loop
      vertex 3.804226 1.236068 0.000000
      vertex 3.707153 1.426585 -4.536475
      vertex 3.804226 1.236068 -4.274251
    endloop
  endfacet
  facet normal -0.891007 -0.453990 0.000000
    outer loop
      vertex 3.236068 2.351141 0.000000
      vertex 3.707153 1.426585 -4.536475
      vertex 3.804226 1.236068 0.000000
    endloop
  endfacet
  facet normal -0.891007 -0.453990 -0.000000
    outer loop
      vertex 3.707153 1.426585 -5.463525
      vertex 3.707153 1.426585 -4.536475
      vertex 3.236068 2.351141 0.000000
    endloop
  endfacet
  facet normal -0.891007 -0.453990 0.000000
    outer loop
      vertex 3.804226 1.236068 -10.000000
      vertex 3.236068 2.351141 0.000000
      vertex 3.236068 2.351141 -10.000000
    endloop
  endfacet
  facet normal -0.987688 -0.156435 0.000000
    outer loop
      vertex 4.000000 0.000000 -6.500000
      vertex 3.860356 0.881678 -6.213525
      vertex 4.000000 0.000000 -10.000000
    endloop
  endfacet
  facet normal -0.987688 -0.156435 -0.000000
    outer loop
      vertex 4.000000 0.000000 -10.000000
      vertex 3.860356 0.881678 -6.213525
      vertex 3.804226 1.236068 -5.725749
    endloop
  endfacet
  facet normal -0.987688 -0.156435 0.000000
    outer loop
      vertex 4.000000 0.000000 -10.000000
      vertex 3.804226 1.236068 -5.725749
      vertex 3.804226 1.236068 -10.000000
    endloop
  endfacet
  facet normal -0.987688 0.156435 0.000000
    outer loop
      vertex 3.860356 -0.881678 -6.213525
      vertex 4.000000 0.000000 -6.500000
      vertex 4.000000 0.000000 -10.000000
    endloop
  endfacet
  facet normal -0.987688 0.156435 -0.000000
    outer loop
      vertex 3.860356 -0.881678 -6.213525
      vertex 4.000000 0.000000 -10.000000
      vertex 3.804226 -1.236068 -5.725749
    endloop
  endfacet
  facet normal -0.987688 0.156435 0.000000
    outer loop
      vertex 4.000000 0.000000 -10.000000
      vertex 3.804226 -1.236068 -10.000000
      vertex 3.804226 -1.236068 -5.725749
    endloop
  endfacet
  facet normal -0.891007 0.453990 0.000000
    outer loop
      vertex 3.804226 -1.236068 0.000000
      vertex 3.804226 -1.236068 -4.274251
      vertex 3.236068 -2.351141 0.000000
    endloop
  endfacet
  facet normal -0.891007 0.453990 0.000000
    outer loop
      vertex 3.236068 -2.351141 0.000000
      vertex 3.804226 -1.236068 -4.274251
      vertex 3.707153 -1.426585 -4.536475
    endloop
  endfacet
  facet normal -0.891007 0.453990 0.000000
    outer loop
      vertex 3.236068 -2.351141 0.000000
      vertex 3.707153 -1.426585 -4.536475
      vertex 3.707153 -1.426585 -5.463525
    endloop
  endfacet
  facet normal -0.891007 0.453990 0.000000
    outer loop
      vertex 3.707153 -1.426585 -5.463525
      vertex 3.804226 -1.236068 -5.725749
      vertex 3.804226 -1.236068 -10.000000
    endloop
  endfacet
  facet normal -0.891007 0.453990 -0.000000
    outer loop
      vertex 3.707153 -1.426585 -5.463525
      vertex 3.804226 -1.236068 -10.000000
      vertex 3.236068 -2.351141 0.000000
    endloop
  endfacet
  facet normal -0.891007 0.453990 0.000000
    outer loop
      vertex 3.236068 -2.351141 0.000000
      vertex 3.804226 -1.236068 -10.000000
      vertex 3.236068 -2.351141 -10.000000
    endloop
  endfacet
  facet normal -0.707107 0.707107 0.000000
    outer loop
      vertex 3.236068 -2.351141 0.000000
      vertex 3.236068 -2.351141 -10.000000
      vertex 2.351141 -3.236068 0.000000
    endloop
  endfacet
  facet normal -0.707107 0.707107 0.000000
    outer loop
      vertex 2.351141 -3.236068 0.000000
      vertex 3.236068 -2.351141 -10.000000
      vertex 2.351141 -3.236068 -10.000000
    endloop
  endfacet
  facet normal -0.453990 0.891007 0.000000
    outer loop
      vertex 2.351141 -3.236068 0.000000
      vertex 2.351141 -3.236068 -10.000000
      vertex 1.236068 -3.804226 0.000000
    endloop
  endfacet
  facet normal -0.453990 0.891007 0.000000
    outer loop
      vertex 1.236068 -3.804226 0.000000
      vertex 2.351141 -3.236068 -10.000000
      vertex 1.236068 -3.804226 -10.000000
    endloop
  endfacet
  facet normal -0.156435 0.987688 0.000000
    outer loop
      vertex 1.236068 -3.804226 0.000000
      vertex 1.236068 -3.804226 -10.000000
      vertex 0.000000 -4.000000 0.000000
    endloop
  endfacet
  facet normal -0.156435 0.987688 0.000000
    outer loop
      vertex 0.000000 -4.000000 0.000000
      vertex 1.236068 -3.804226 -10.000000
      vertex 0.000000 -4.000000 -10.000000
    endloop
  endfacet
  facet normal 0.156435 0.987688 -0.000000
    outer loop
      vertex 0.000000 -4.000000 0.000000
      vertex 0.000000 -4.000000 -10.000000
      vertex -1.236068 -3.804226 0.000000
    endloop
  endfacet
  facet normal 0.156435 0.987688 -0.000000
    outer loop
      vertex -1.236068 -3.804226 0.000000
      vertex 0.000000 -4.000000 -10.000000
      vertex -1.236068 -3.804226 -10.000000
    endloop
  endfacet
  facet normal 0.453990 0.891007 -0.000000
    outer loop
      vertex -1.236068 -3.804226 0.000000
      vertex -1.236068 -3.804226 -10.000000
      vertex -2.351141 -3.236068 0.000000
    endloop
  endfacet
  facet normal 0.453990 0.891007 -0.000000
    outer loop
      vertex -2.351141 -3.236068 0.000000
      vertex -1.236068 -3.804226 -10.000000
      vertex -2.351141 -3.236068 -10.000000
    endloop
  endfacet
  facet normal 0.707107 0.707107 -0.000000
    outer loop
      vertex -2.351141 -3.236068 0.000000
      vertex -2.351141 -3.236068 -10.000000
      vertex -3.236068 -2.351141 0.000000
    endloop
  endfacet
  facet normal 0.707107 0.707107 -0.000000
    outer loop
      vertex -3.236068 -2.351141 0.000000
      vertex -2.351141 -3.236068 -10.000000
      vertex -3.236068 -2.351141 -10.000000
    endloop
  endfacet
  facet normal 0.891007 0.453990 0.000000
    outer loop
      vertex -3.804226 -1.236068 0.000000
      vertex -3.236068 -2.351141 0.000000
      vertex -3.236068 -2.351141 -10.000000
    endloop
  endfacet
  facet normal 0.891007 0.453990 0.000000
    outer loop
      vertex -3.804226 -1.236068 -10.000000
      vertex -3.804226 -1.236068 0.000000
      vertex -3.236068 -2.351141 -10.000000
    endloop
  endfacet
  facet normal 1.000000 0.000000 0.000000
    outer loop
      vertex 4.650000 -0.500695 -3.379375
      vertex 4.650000 2.750000 -1.350000
      vertex 4.650000 -2.750000 -1.350000
    endloop
  endfacet
  facet normal 1.000000 0.000000 -0.000000
    outer loop
      vertex 4.650000 0.881678 -6.213525
      vertex 4.650000 0.000000 -6.500000
      vertex 4.650000 2.750000 -10.000000
    endloop
  endfacet
  facet normal 1.000000 0.000000 0.000000
    outer loop
      vertex 4.650000 -2.750000 -10.000000
      vertex 4.650000 -1.426585 -4.536475
      vertex 4.650000 -2.750000 -1.350000
    endloop
  endfacet
  facet normal 1.000000 0.000000 0.000000
    outer loop
      vertex 4.650000 -0.500695 -3.379375
      vertex 4.650000 0.500695 -3.379375
      vertex 4.650000 2.750000 -1.350000
    endloop
  endfacet
  facet normal 1.000000 0.000000 -0.000000
    outer loop
      vertex 4.650000 1.426585 -5.463525
      vertex 4.650000 0.881678 -6.213525
      vertex 4.650000 2.750000 -10.000000
    endloop
  endfacet
  facet normal 1.000000 0.000000 0.000000
    outer loop
      vertex 4.650000 -1.060660 -3.939340
      vertex 4.650000 -0.500695 -3.379375
      vertex 4.650000 -2.750000 -1.350000
    endloop
  endfacet
  facet normal 1.000000 0.000000 0.000000
    outer loop
      vertex 4.650000 1.021322 -3.978678
      vertex 4.650000 1.426585 -4.536475
      vertex 4.650000 1.060660 -3.939340
    endloop
  endfacet
  facet normal 1.000000 0.000000 0.000000
    outer loop
      vertex 4.650000 1.060660 -3.939340
      vertex 4.650000 2.750000 -1.350000
      vertex 4.650000 0.500695 -3.379375
    endloop
  endfacet
  facet normal 1.000000 0.000000 0.000000
    outer loop
      vertex 4.650000 1.426585 -4.536475
      vertex 4.650000 2.750000 -1.350000
      vertex 4.650000 1.060660 -3.939340
    endloop
  endfacet
  facet normal 1.000000 0.000000 -0.000000
    outer loop
      vertex 4.650000 1.426585 -4.536475
      vertex 4.650000 1.426585 -5.463525
      vertex 4.650000 2.750000 -10.000000
    endloop
  endfacet
  facet normal 1.000000 0.000000 0.000000
    outer loop
      vertex 4.650000 2.750000 -10.000000
      vertex 4.650000 2.750000 -1.350000
      vertex 4.650000 1.426585 -4.536475
    endloop
  endfacet
  facet normal 1.000000 0.000000 0.000000
    outer loop
      vertex 4.650000 -2.750000 -10.000000
      vertex 4.650000 2.750000 -10.000000
      vertex 4.650000 0.000000 -6.500000
    endloop
  endfacet
  facet normal 1.000000 0.000000 0.000000
    outer loop
      vertex 4.650000 -2.750000 -10.000000
      vertex 4.650000 0.000000 -6.500000
      vertex 4.650000 -0.881678 -6.213525
    endloop
  endfacet
  facet normal 1.000000 0.000000 0.000000
    outer loop
      vertex 4.650000 -2.750000 -10.000000
      vertex 4.650000 -1.426585 -5.463525
      vertex 4.650000 -1.426585 -4.536475
    endloop
  endfacet
  facet normal 1.000000 0.000000 0.000000
    outer loop
      vertex 4.650000 -2.750000 -10.000000
      vertex 4.650000 -0.881678 -6.213525
      vertex 4.650000 -1.426585 -5.463525
    endloop
  endfacet
  facet normal 1.000000 0.000000 0.000000
    outer loop
      vertex 4.650000 -1.426585 -4.536475
      vertex 4.650000 -1.060660 -3.939340
      vertex 4.650000 -2.750000 -1.350000
    endloop
  endfacet
  facet normal 1.000000 0.000000 0.000000
    outer loop
      vertex 4.650000 -1.426585 -4.536475
      vertex 4.650000 -1.021322 -3.978678
      vertex 4.650000 -1.060660 -3.939340
    endloop
  endfacet
  facet normal 0.000000 -1.000000 0.000000
    outer loop
      vertex 7.350000 2.750000 -10.000000
      vertex 7.350000 2.750000 -1.350000
      vertex 6.000000 2.750000 0.000000
    endloop
  endfacet
  facet normal -0.000000 -1.000000 0.000000
    outer loop
      vertex 4.650000 2.750000 -1.350000
      vertex 7.350000 2.750000 -10.000000
      vertex 6.000000 2.750000 0.000000
    endloop
  endfacet
  facet normal -0.000000 -1.000000 -0.000000
    outer loop
      vertex 4.650000 2.750000 -10.000000
      vertex 7.350000 2.750000 -10.000000
      vertex 4.650000 2.750000 -1.350000
    endloop
  endfacet
  facet normal -1.000000 0.000000 0.000000
    outer loop
      vertex 7.350000 -0.881678 -6.213525
      vertex 7.350000 2.750000 -10.000000
      vertex 7.350000 -2.750000 -10.000000
    endloop
  endfacet
  facet normal -1.000000 0.000000 0.000000
    outer loop
      vertex 7.350000 0.881678 -6.213525
      vertex 7.350000 2.750000 -10.000000
      vertex 7.350000 0.000000 -6.500000
    endloop
  endfacet
  facet normal -1.000000 0.000000 0.000000
    outer loop
      vertex 7.350000 -2.750000 -1.350000
      vertex 7.350000 -1.426585 -5.463525
      vertex 7.350000 -2.750000 -10.000000
    endloop
  endfacet
  facet normal -1.000000 0.000000 0.000000
    outer loop
      vertex 7.350000 -1.426585 -5.463525
      vertex 7.350000 -0.881678 -6.213525
      vertex 7.350000 -2.750000 -10.000000
    endloop
  endfacet
  facet normal -1.000000 0.000000 0.000000
    outer loop
      vertex 7.350000 1.426585 -5.463525
      vertex 7.350000 2.750000 -10.000000
      vertex 7.350000 0.881678 -6.213525
    endloop
  endfacet
  facet normal -1.000000 0.000000 0.000000
    outer loop
      vertex 7.350000 2.750000 -1.350000
      vertex 7.350000 2.750000 -10.000000
      vertex 7.350000 1.426585 -5.463525
    endloop
  endfacet
  facet normal -1.000000 -0.000000 0.000000
    outer loop
      vertex 7.350000 0.500695 -3.379375
      vertex 7.350000 2.750000 -1.350000
      vertex 7.350000 1.060660 -3.939340
    endloop
  endfacet
  facet normal -1.000000 0.000000 0.000000
    outer loop
      vertex 7.350000 1.060660 -3.939340
      vertex 7.350000 1.426585 -4.536475
      vertex 7.350000 1.021322 -3.978678
    endloop
  endfacet
  facet normal -1.000000 0.000000 0.000000
    outer loop
      vertex 7.350000 2.750000 -1.350000
      vertex 7.350000 1.426585 -4.536475
      vertex 7.350000 1.060660 -3.939340
    endloop
  endfacet
  facet normal -1.000000 -0.000000 -0.000000
    outer loop
      vertex 7.350000 -0.500695 -3.379375
      vertex 7.350000 -2.750000 -1.350000
      vertex 7.350000 0.500695 -3.379375
    endloop
  endfacet
  facet normal -1.000000 0.000000 0.000000
    outer loop
      vertex 7.350000 2.750000 -1.350000
      vertex 7.350000 0.500695 -3.379375
      vertex 7.350000 -2.750000 -1.350000
    endloop
  endfacet
  facet normal -1.000000 0.000000 -0.000000
    outer loop
      vertex 7.350000 -1.060660 -3.939340
      vertex 7.350000 -2.750000 -1.350000
      vertex 7.350000 -0.500695 -3.379375
    endloop
  endfacet
  facet normal -1.000000 -0.000000 0.000000
    outer loop
      vertex 7.350000 1.426585 -4.536475
      vertex 7.350000 2.750000 -1.350000
      vertex 7.350000 1.426585 -5.463525
    endloop
  endfacet
  facet normal -1.000000 0.000000 -0.000000
    outer loop
      vertex 7.350000 -1.426585 -4.536475
      vertex 7.350000 -2.750000 -1.350000
      vertex 7.350000 -1.060660 -3.939340
    endloop
  endfacet
  facet normal -1.000000 0.000000 0.000000
    outer loop
      vertex 7.350000 -1.426585 -4.536475
      vertex 7.350000 -1.060660 -3.939340
      vertex 7.350000 -1.021322 -3.978678
    endloop
  endfacet
  facet normal -1.000000 0.000000 0.000000
    outer loop
      vertex 7.350000 -2.750000 -1.350000
      vertex 7.350000 -1.426585 -4.536475
      vertex 7.350000 -1.426585 -5.463525
    endloop
  endfacet
  facet normal -1.000000 0.000000 0.000000
    outer loop
      vertex 7.350000 0.000000 -6.500000
      vertex 7.350000 2.750000 -10.000000
      vertex 7.350000 -0.881678 -6.213525
    endloop
  endfacet
  facet normal 0.000000 1.000000 0.000000
    outer loop
      vertex 4.650000 -2.750000 -1.350000
      vertex 6.000000 -2.750000 0.000000
      vertex 7.350000 -2.750000 -1.350000
    endloop
  endfacet
  facet normal 0.000000 1.000000 0.000000
    outer loop
      vertex 4.650000 -2.750000 -1.350000
      vertex 7.350000 -2.750000 -1.350000
      vertex 7.350000 -2.750000 -10.000000
    endloop
  endfacet
  facet normal 0.000000 1.000000 -0.000000
    outer loop
      vertex 4.650000 -2.750000 -1.350000
      vertex 7.350000 -2.750000 -10.000000
      vertex 4.650000 -2.750000 -10.000000
    endloop
  endfacet
  facet normal 0.000000 0.000000 1.000000
    outer loop
      vertex -14.265848 4.635255 9.750000
      vertex -15.000000 0.000000 9.750000
      vertex -14.265848 -4.635255 9.750000
    endloop
  endfacet
  facet normal 0.000000 0.000000 1.000000
    outer loop
      vertex -8.816779 -12.135255 9.750000
      vertex -14.265848 4.635255 9.750000
      vertex -12.135255 -8.816779 9.750000
    endloop
  endfacet
  facet normal 0.000000 0.000000 1.000000
    outer loop
      vertex -12.135255 -8.816779 9.750000
      vertex -14.265848 4.635255 9.750000
      vertex -14.265848 -4.635255 9.750000
    endloop
  endfacet
  facet normal -0.000000 -0.000000 1.000000
    outer loop
      vertex -10.973721 -4.727241 9.750000
      vertex -14.265848 4.635255 9.750000
      vertex -8.816779 -12.135255 9.750000
    endloop
  endfacet
  facet normal 0.000000 -0.000000 1.000000
    outer loop
      vertex 4.727241 -4.727241 9.750000
      vertex 4.727241 -10.973721 9.750000
      vertex 8.816779 -12.135255 9.750000
    endloop
  endfacet
  facet normal 0.000000 0.000000 1.000000
    outer loop
      vertex 4.727241 -4.727241 9.750000
      vertex 8.816779 -12.135255 9.750000
      vertex 12.135255 -8.816779 9.750000
    endloop
  endfacet
  facet normal -0.000000 0.000000 1.000000
    outer loop
      vertex -4.727241 4.727241 9.750000
      vertex -4.727241 10.973721 9.750000
      vertex -10.973721 4.727241 9.750000
    endloop
  endfacet
  facet normal 0.000000 0.000000 1.000000
    outer loop
      vertex 4.727241 10.973721 9.750000
      vertex 12.135255 8.816779 9.750000
      vertex 8.816779 12.135255 9.750000
    endloop
  endfacet
  facet normal 0.000000 0.000000 1.000000
    outer loop
      vertex -4.727241 10.973721 9.750000
      vertex 4.727241 10.973721 9.750000
      vertex 4.635255 14.265848 9.750000
    endloop
  endfacet
  facet normal 0.000000 0.000000 1.000000
    outer loop
      vertex 10.973721 4.727241 9.750000
      vertex 15.000000 0.000000 9.750000
      vertex 14.265848 4.635255 9.750000
    endloop
  endfacet
  facet normal 0.000000 -0.000000 1.000000
    outer loop
      vertex 4.727241 10.973721 9.750000
      vertex 4.727241 4.727241 9.750000
      vertex 12.135255 8.816779 9.750000
    endloop
  endfacet
  facet normal 0.000000 -0.000000 1.000000
    outer loop
      vertex -4.635255 14.265848 9.750000
      vertex -14.265848 4.635255 9.750000
      vertex 0.000000 15.000000 9.750000
    endloop
  endfacet
  facet normal 0.000000 -0.000000 1.000000
    outer loop
      vertex -8.816779 12.135255 9.750000
      vertex -14.265848 4.635255 9.750000
      vertex -4.635255 14.265848 9.750000
    endloop
  endfacet
  facet normal 0.000000 -0.000000 1.000000
    outer loop
      vertex -12.135255 8.816779 9.750000
      vertex -14.265848 4.635255 9.750000
      vertex -8.816779 12.135255 9.750000
    endloop
  endfacet
  facet normal 0.000000 0.000000 1.000000
    outer loop
      vertex -4.635255 -14.265848 9.750000
      vertex -10.973721 -4.727241 9.750000
      vertex -8.816779 -12.135255 9.750000
    endloop
  endfacet
  facet normal 0.000000 0.000000 1.000000
    outer loop
      vertex 4.727241 -10.973721 9.750000
      vertex -4.727241 -10.973721 9.750000
      vertex 0.000000 -15.000000 9.750000
    endloop
  endfacet
  facet normal 0.000000 0.000000 1.000000
    outer loop
      vertex 10.973721 4.727241 9.750000
      vertex 14.265848 -4.635255 9.750000
      vertex 15.000000 0.000000 9.750000
    endloop
  endfacet
  facet normal 0.000000 -0.000000 1.000000
    outer loop
      vertex 10.973721 4.727241 9.750000
      vertex 10.973721 -4.727241 9.750000
      vertex 14.265848 -4.635255 9.750000
    endloop
  endfacet
  facet normal 0.000000 -0.000000 1.000000
    outer loop
      vertex 0.000000 15.000000 9.750000
      vertex -4.727241 10.973721 9.750000
      vertex 4.635255 14.265848 9.750000
    endloop
  endfacet
  facet normal 0.000000 0.000000 1.000000
    outer loop
      vertex 0.000000 15.000000 9.750000
      vertex -14.265848 4.635255 9.750000
      vertex -4.727241 10.973721 9.750000
    endloop
  endfacet
  facet normal 0.000000 0.000000 1.000000
    outer loop
      vertex 4.635255 14.265848 9.750000
      vertex 4.727241 10.973721 9.750000
      vertex 8.816779 12.135255 9.750000
    endloop
  endfacet
  facet normal 0.000000 -0.000000 1.000000
    outer loop
      vertex 12.135255 8.816779 9.750000
      vertex 10.973721 4.727241 9.750000
      vertex 14.265848 4.635255 9.750000
    endloop
  endfacet
  facet normal 0.000000 0.000000 1.000000
    outer loop
      vertex 12.135255 8.816779 9.750000
      vertex 4.727241 4.727241 9.750000
      vertex 10.973721 4.727241 9.750000
    endloop
  endfacet
  facet normal 0.000000 0.000000 1.000000
    outer loop
      vertex 14.265848 -4.635255 9.750000
      vertex 10.973721 -4.727241 9.750000
      vertex 12.135255 -8.816779 9.750000
    endloop
  endfacet
  facet normal 0.000000 -0.000000 1.000000
    outer loop
      vertex 10.973721 -4.727241 9.750000
      vertex 4.727241 -4.727241 9.750000
      vertex 12.135255 -8.816779 9.750000
    endloop
  endfacet
  facet normal -0.000000 0.000000 1.000000
    outer loop
      vertex -10.973721 4.727241 9.750000
      vertex -4.727241 10.973721 9.750000
      vertex -14.265848 4.635255 9.750000
    endloop
  endfacet
  facet normal -0.000000 0.000000 1.000000
    outer loop
      vertex 8.816779 -12.135255 9.750000
      vertex 4.727241 -10.973721 9.750000
      vertex 4.635255 -14.265848 9.750000
    endloop
  endfacet
  facet normal 0.000000 0.000000 1.000000
    outer loop
      vertex 0.000000 -15.000000 9.750000
      vertex -4.727241 -10.973721 9.750000
      vertex -4.635255 -14.265848 9.750000
    endloop
  endfacet
  facet normal -0.000000 -0.000000 1.000000
    outer loop
      vertex -4.727241 -10.973721 9.750000
      vertex -10.973721 -4.727241 9.750000
      vertex -4.635255 -14.265848 9.750000
    endloop
  endfacet
  facet normal 0.000000 0.000000 1.000000
    outer loop
      vertex -4.727241 -4.727241 9.750000
      vertex -10.973721 -4.727241 9.750000
      vertex -4.727241 -10.973721 9.750000
    endloop
  endfacet
  facet normal 0.000000 0.000000 1.000000
    outer loop
      vertex 4.727241 -10.973721 9.750000
      vertex 0.000000 -15.000000 9.750000
      vertex 4.635255 -14.265848 9.750000
    endloop
  endfacet
  facet normal 0.000000 0.000000 1.000000
    outer loop
      vertex -10.973721 -4.727241 9.750000
      vertex -10.973721 4.727241 9.750000
      vertex -14.265848 4.635255 9.750000
    endloop
  endfacet
  facet normal 0.000000 0.000000 -1.000000
    outer loop
      vertex 14.920698 0.500695 -3.379375
      vertex 15.000000 0.000000 -3.379375
      vertex 7.350000 0.500695 -3.379375
    endloop
  endfacet
  facet normal 0.000000 -0.000000 -1.000000
    outer loop
      vertex 7.350000 0.500695 -3.379375
      vertex 15.000000 0.000000 -3.379375
      vertex 14.920698 -0.500695 -3.379375
    endloop
  endfacet
  facet normal 0.000000 0.000000 -1.000000
    outer loop
      vertex 7.350000 0.500695 -3.379375
      vertex 14.920698 -0.500695 -3.379375
      vertex 7.350000 -0.500695 -3.379375
    endloop
  endfacet
  facet normal 0.000000 0.707107 -0.707107
    outer loop
      vertex 14.920698 -0.500695 -3.379375
      vertex 14.832008 -1.060660 -3.939340
      vertex 7.350000 -0.500695 -3.379375
    endloop
  endfacet
  facet normal 0.000000 0.707107 -0.707107
    outer loop
      vertex 7.350000 -0.500695 -3.379375
      vertex 14.832008 -1.060660 -3.939340
      vertex 7.350000 -1.060660 -3.939340
    endloop
  endfacet
  facet normal -0.000000 0.707107 0.707107
    outer loop
      vertex 14.838239 -1.021322 -3.978678
      vertex 7.350000 -1.021322 -3.978678
      vertex 14.832008 -1.060660 -3.939340
    endloop
  endfacet
  facet normal -0.000000 0.707107 0.707107
    outer loop
      vertex 14.832008 -1.060660 -3.939340
      vertex 7.350000 -1.021322 -3.978678
      vertex 7.350000 -1.060660 -3.939340
    endloop
  endfacet
  facet normal 0.000000 0.809017 -0.587785
    outer loop
      vertex 14.838239 -1.021322 -3.978678
      vertex 14.774051 -1.426585 -4.536475
      vertex 7.350000 -1.021322 -3.978678
    endloop
  endfacet
  facet normal 0.000000 0.809017 -0.587785
    outer loop
      vertex 7.350000 -1.021322 -3.978678
      vertex 14.774051 -1.426585 -4.536475
      vertex 7.350000 -1.426585 -4.536475
    endloop
  endfacet
  facet normal 0.000000 1.000000 0.000000
    outer loop
      vertex 14.774051 -1.426585 -4.536475
      vertex 14.774051 -1.426585 -5.463525
      vertex 7.350000 -1.426585 -4.536475
    endloop
  endfacet
  facet normal 0.000000 1.000000 -0.000000
    outer loop
      vertex 7.350000 -1.426585 -4.536475
      vertex 14.774051 -1.426585 -5.463525
      vertex 7.350000 -1.426585 -5.463525
    endloop
  endfacet
  facet normal -0.000000 0.809017 0.587785
    outer loop
      vertex 14.860356 -0.881678 -6.213525
      vertex 7.350000 -0.881678 -6.213525
      vertex 14.774051 -1.426585 -5.463525
    endloop
  endfacet
  facet normal -0.000000 0.809017 0.587785
    outer loop
      vertex 14.774051 -1.426585 -5.463525
      vertex 7.350000 -0.881678 -6.213525
      vertex 7.350000 -1.426585 -5.463525
    endloop
  endfacet
  facet normal -0.000000 0.309017 0.951056
    outer loop
      vertex 14.860356 -0.881678 -6.213525
      vertex 15.000000 0.000000 -6.500000
      vertex 7.350000 0.000000 -6.500000
    endloop
  endfacet
  facet normal 0.000000 0.309017 0.951056
    outer loop
      vertex 7.350000 -0.881678 -6.213525
      vertex 14.860356 -0.881678 -6.213525
      vertex 7.350000 0.000000 -6.500000
    endloop
  endfacet
  facet normal 0.000000 -0.309017 0.951056
    outer loop
      vertex 15.000000 0.000000 -6.500000
      vertex 14.860356 0.881678 -6.213525
      vertex 7.350000 0.881678 -6.213525
    endloop
  endfacet
  facet normal -0.000000 -0.309017 0.951056
    outer loop
      vertex 7.350000 0.000000 -6.500000
      vertex 15.000000 0.000000 -6.500000
      vertex 7.350000 0.881678 -6.213525
    endloop
  endfacet
  facet normal 0.000000 -0.809017 0.587785
    outer loop
      vertex 14.860356 0.881678 -6.213525
      vertex 14.774051 1.426585 -5.463525
      vertex 7.350000 1.426585 -5.463525
    endloop
  endfacet
  facet normal 0.000000 -0.809017 0.587785
    outer loop
      vertex 7.350000 0.881678 -6.213525
      vertex 14.860356 0.881678 -6.213525
      vertex 7.350000 1.426585 -5.463525
    endloop
  endfacet
  facet normal 0.000000 -1.000000 0.000000
    outer loop
      vertex 14.774051 1.426585 -5.463525
      vertex 14.774051 1.426585 -4.536475
      vertex 7.350000 1.426585 -4.536475
    endloop
  endfacet
  facet normal -0.000000 -1.000000 -0.000000
    outer loop
      vertex 7.350000 1.426585 -5.463525
      vertex 14.774051 1.426585 -5.463525
      vertex 7.350000 1.426585 -4.536475
    endloop
  endfacet
  facet normal 0.000000 -0.809017 -0.587785
    outer loop
      vertex 7.350000 1.426585 -4.536475
      vertex 14.774051 1.426585 -4.536475
      vertex 14.838239 1.021322 -3.978678
    endloop
  endfacet
  facet normal 0.000000 -0.809017 -0.587785
    outer loop
      vertex 7.350000 1.021322 -3.978678
      vertex 7.350000 1.426585 -4.536475
      vertex 14.838239 1.021322 -3.978678
    endloop
  endfacet
  facet normal -0.000000 -0.707107 0.707107
    outer loop
      vertex 14.838239 1.021322 -3.978678
      vertex 14.832008 1.060660 -3.939340
      vertex 7.350000 1.060660 -3.939340
    endloop
  endfacet
  facet normal -0.000000 -0.707107 0.707107
    outer loop
      vertex 7.350000 1.021322 -3.978678
      vertex 14.838239 1.021322 -3.978678
      vertex 7.350000 1.060660 -3.939340
    endloop
  endfacet
  facet normal 0.000000 -0.707107 -0.707107
    outer loop
      vertex 7.350000 1.060660 -3.939340
      vertex 14.832008 1.060660 -3.939340
      vertex 14.920698 0.500695 -3.379375
    endloop
  endfacet
  facet normal 0.000000 -0.707107 -0.707107
    outer loop
      vertex 7.350000 0.500695 -3.379375
      vertex 7.350000 1.060660 -3.939340
      vertex 14.920698 0.500695 -3.379375
    endloop
  endfacet
  facet normal 0.000000 -0.000000 1.000000
    outer loop
      vertex -10.973721 7.339746 0.000000
      vertex -10.973721 -7.339746 0.000000
      vertex -7.339746 -7.339746 0.000000
    endloop
  endfacet
  facet normal -0.000000 0.000000 1.000000
    outer loop
      vertex -3.804226 -1.236068 0.000000
      vertex -10.973721 7.339746 0.000000
      vertex -7.339746 -7.339746 0.000000
    endloop
  endfacet
  facet normal 0.000000 0.000000 1.000000
    outer loop
      vertex -7.339746 -10.973721 0.000000
      vertex 7.339746 -10.973721 0.000000
      vertex -7.339746 -7.339746 0.000000
    endloop
  endfacet
  facet normal -0.000000 -0.000000 1.000000
    outer loop
      vertex 6.000000 -2.750000 0.000000
      vertex 3.804226 -1.236068 0.000000
      vertex 10.973721 -7.339746 0.000000
    endloop
  endfacet
  facet normal -0.000000 -0.000000 1.000000
    outer loop
      vertex 0.000000 -4.000000 0.000000
      vertex -1.236068 -3.804226 0.000000
      vertex 7.339746 -10.973721 0.000000
    endloop
  endfacet
  facet normal 0.000000 0.000000 1.000000
    outer loop
      vertex -1.236068 3.804226 0.000000
      vertex 7.339746 7.339746 0.000000
      vertex -7.339746 7.339746 0.000000
    endloop
  endfacet
  facet normal 0.000000 0.000000 1.000000
    outer loop
      vertex 10.973721 -7.339746 0.000000
      vertex 10.973721 7.339746 0.000000
      vertex 7.339746 7.339746 0.000000
    endloop
  endfacet
  facet normal 0.000000 0.000000 1.000000
    outer loop
      vertex -4.000000 0.000000 0.000000
      vertex -3.804226 1.236068 0.000000
      vertex -10.973721 7.339746 0.000000
    endloop
  endfacet
  facet normal 0.000000 0.000000 1.000000
    outer loop
      vertex -3.236068 2.351141 0.000000
      vertex -7.339746 7.339746 0.000000
      vertex -10.973721 7.339746 0.000000
    endloop
  endfacet
  facet normal 0.000000 0.000000 1.000000
    outer loop
      vertex 7.339746 7.339746 0.000000
      vertex 7.339746 10.973721 0.000000
      vertex -7.339746 7.339746 0.000000
    endloop
  endfacet
  facet normal -0.000000 0.000000 1.000000
    outer loop
      vertex -3.236068 -2.351141 0.000000
      vertex -3.804226 -1.236068 0.000000
      vertex -7.339746 -7.339746 0.000000
    endloop
  endfacet
  facet normal -0.000000 -0.000000 1.000000
    outer loop
      vertex -4.000000 0.000000 0.000000
      vertex -10.973721 7.339746 0.000000
      vertex -3.804226 -1.236068 0.000000
    endloop
  endfacet
  facet normal 0.000000 -0.000000 1.000000
    outer loop
      vertex 1.236068 -3.804226 0.000000
      vertex 0.000000 -4.000000 0.000000
      vertex 7.339746 -10.973721 0.000000
    endloop
  endfacet
  facet normal -0.000000 0.000000 1.000000
    outer loop
      vertex -2.351141 3.236068 0.000000
      vertex -7.339746 7.339746 0.000000
      vertex -3.236068 2.351141 0.000000
    endloop
  endfacet
  facet normal 0.000000 -0.000000 1.000000
    outer loop
      vertex 2.351141 -3.236068 0.000000
      vertex 1.236068 -3.804226 0.000000
      vertex 7.339746 -7.339746 0.000000
    endloop
  endfacet
  facet normal -0.000000 0.000000 1.000000
    outer loop
      vertex 0.000000 4.000000 0.000000
      vertex 7.339746 7.339746 0.000000
      vertex -1.236068 3.804226 0.000000
    endloop
  endfacet
  facet normal 0.000000 -0.000000 1.000000
    outer loop
      vertex 3.804226 -1.236068 0.000000
      vertex 3.236068 -2.351141 0.000000
      vertex 10.973721 -7.339746 0.000000
    endloop
  endfacet
  facet normal 0.000000 0.000000 1.000000
    outer loop
      vertex 1.236068 3.804226 0.000000
      vertex 7.339746 7.339746 0.000000
      vertex 0.000000 4.000000 0.000000
    endloop
  endfacet
  facet normal 0.000000 0.000000 1.000000
    outer loop
      vertex 2.351141 3.236068 0.000000
      vertex 7.339746 7.339746 0.000000
      vertex 1.236068 3.804226 0.000000
    endloop
  endfacet
  facet normal 0.000000 0.000000 1.000000
    outer loop
      vertex 3.236068 2.351141 0.000000
      vertex 7.339746 7.339746 0.000000
      vertex 2.351141 3.236068 0.000000
    endloop
  endfacet
  facet normal -0.000000 0.000000 1.000000
    outer loop
      vertex 6.000000 2.750000 0.000000
      vertex 7.339746 7.339746 0.000000
      vertex 3.236068 2.351141 0.000000
    endloop
  endfacet
  facet normal 0.000000 -0.000000 1.000000
    outer loop
      vertex 6.000000 2.750000 0.000000
      vertex 6.000000 -2.750000 0.000000
      vertex 10.973721 -7.339746 0.000000
    endloop
  endfacet
  facet normal 0.000000 0.000000 1.000000
    outer loop
      vertex -2.351141 3.236068 0.000000
      vertex -1.236068 3.804226 0.000000
      vertex -7.339746 7.339746 0.000000
    endloop
  endfacet
  facet normal 0.000000 0.000000 1.000000
    outer loop
      vertex 7.339746 -7.339746 0.000000
      vertex 10.973721 -7.339746 0.000000
      vertex 3.236068 -2.351141 0.000000
    endloop
  endfacet
  facet normal 0.000000 0.000000 1.000000
    outer loop
      vertex 7.339746 -7.339746 0.000000
      vertex 3.236068 -2.351141 0.000000
      vertex 2.351141 -3.236068 0.000000
    endloop
  endfacet
  facet normal 0.000000 0.000000 1.000000
    outer loop
      vertex 6.000000 -2.750000 0.000000
      vertex 3.804226 1.236068 0.000000
      vertex 4.000000 0.000000 0.000000
    endloop
  endfacet
  facet normal 0.000000 0.000000 1.000000
    outer loop
      vertex 7.339746 -10.973721 0.000000
      vertex 7.339746 -7.339746 0.000000
      vertex 1.236068 -3.804226 0.000000
    endloop
  endfacet
  facet normal 0.000000 0.000000 1.000000
    outer loop
      vertex 7.339746 -10.973721 0.000000
      vertex -1.236068 -3.804226 0.000000
      vertex -7.339746 -7.339746 0.000000
    endloop
  endfacet
  facet normal -0.000000 0.000000 1.000000
    outer loop
      vertex -1.236068 -3.804226 0.000000
      vertex -2.351141 -3.236068 0.000000
      vertex -7.339746 -7.339746 0.000000
    endloop
  endfacet
  facet normal -0.000000 0.000000 1.000000
    outer loop
      vertex -2.351141 -3.236068 0.000000
      vertex -3.236068 -2.351141 0.000000
      vertex -7.339746 -7.339746 0.000000
    endloop
  endfacet
  facet normal 0.000000 0.000000 1.000000
    outer loop
      vertex 6.000000 -2.750000 0.000000
      vertex 3.236068 2.351141 0.000000
      vertex 3.804226 1.236068 0.000000
    endloop
  endfacet
  facet normal 0.000000 0.000000 1.000000
    outer loop
      vertex 10.973721 -7.339746 0.000000
      vertex 7.339746 7.339746 0.000000
      vertex 6.000000 2.750000 0.000000
    endloop
  endfacet
  facet normal 0.000000 0.000000 1.000000
    outer loop
      vertex 6.000000 -2.750000 0.000000
      vertex 6.000000 2.750000 0.000000
      vertex 3.236068 2.351141 0.000000
    endloop
  endfacet
  facet normal 0.000000 -0.000000 1.000000
    outer loop
      vertex -7.339746 10.973721 0.000000
      vertex -7.339746 7.339746 0.000000
      vertex 7.339746 10.973721 0.000000
    endloop
  endfacet
  facet normal 0.000000 0.000000 1.000000
    outer loop
      vertex -3.804226 1.236068 0.000000
      vertex -3.236068 2.351141 0.000000
      vertex -10.973721 7.339746 0.000000
    endloop
  endfacet
  facet normal 0.000000 -0.000000 1.000000
    outer loop
      vertex 4.000000 0.000000 0.000000
      vertex 3.804226 -1.236068 0.000000
      vertex 6.000000 -2.750000 0.000000
    endloop
  endfacet
  facet normal -0.987688 -0.156435 0.000000
    outer loop
      vertex 4.000000 0.000000 0.000000
      vertex 3.920698 0.500695 -3.379375
      vertex 4.000000 0.000000 -3.379375
    endloop
  endfacet
  facet normal -0.987688 -0.156435 0.000000
    outer loop
      vertex 3.832008 1.060660 -3.939340
      vertex 3.920698 0.500695 -3.379375
      vertex 4.000000 0.000000 0.000000
    endloop
  endfacet
  facet normal -0.987688 -0.156435 0.000000
    outer loop
      vertex 3.832008 1.060660 -3.939340
      vertex 4.000000 0.000000 0.000000
      vertex 3.804226 1.236068 0.000000
    endloop
  endfacet
  facet normal -0.987688 -0.156435 0.000000
    outer loop
      vertex 3.832008 1.060660 -3.939340
      vertex 3.804226 1.236068 0.000000
      vertex 3.804226 1.236068 -4.274251
    endloop
  endfacet
  facet normal -0.987688 -0.156435 0.000000
    outer loop
      vertex 3.832008 1.060660 -3.939340
      vertex 3.804226 1.236068 -4.274251
      vertex 3.838238 1.021322 -3.978678
    endloop
  endfacet
  facet normal 0.000000 -0.809017 -0.587785
    outer loop
      vertex 4.650000 1.426585 -4.536475
      vertex 4.650000 1.021322 -3.978678
      vertex 3.838238 1.021322 -3.978678
    endloop
  endfacet
  facet normal -0.000000 -0.809017 -0.587785
    outer loop
      vertex 3.707153 1.426585 -4.536475
      vertex 4.650000 1.426585 -4.536475
      vertex 3.804226 1.236068 -4.274251
    endloop
  endfacet
  facet normal -0.000000 -0.809017 -0.587785
    outer loop
      vertex 3.804226 1.236068 -4.274251
      vertex 4.650000 1.426585 -4.536475
      vertex 3.838238 1.021322 -3.978678
    endloop
  endfacet
  facet normal 0.000000 -1.000000 0.000000
    outer loop
      vertex 4.650000 1.426585 -5.463525
      vertex 4.650000 1.426585 -4.536475
      vertex 3.707153 1.426585 -4.536475
    endloop
  endfacet
  facet normal -0.000000 -1.000000 -0.000000
    outer loop
      vertex 3.707153 1.426585 -5.463525
      vertex 4.650000 1.426585 -5.463525
      vertex 3.707153 1.426585 -4.536475
    endloop
  endfacet
  facet normal 0.000000 -0.809017 0.587785
    outer loop
      vertex 3.804226 1.236068 -5.725749
      vertex 3.860356 0.881678 -6.213525
      vertex 4.650000 0.881678 -6.213525
    endloop
  endfacet
  facet normal 0.000000 -0.809017 0.587785
    outer loop
      vertex 3.707153 1.426585 -5.463525
      vertex 3.804226 1.236068 -5.725749
      vertex 4.650000 1.426585 -5.463525
    endloop
  endfacet
  facet normal -0.000000 -0.809017 0.587785
    outer loop
      vertex 4.650000 1.426585 -5.463525
      vertex 3.804226 1.236068 -5.725749
      vertex 4.650000 0.881678 -6.213525
    endloop
  endfacet
  facet normal 0.000000 -0.309017 0.951056
    outer loop
      vertex 4.000000 0.000000 -6.500000
      vertex 4.650000 0.000000 -6.500000
      vertex 4.650000 0.881678 -6.213525
    endloop
  endfacet
  facet normal 0.000000 -0.309017 0.951056
    outer loop
      vertex 3.860356 0.881678 -6.213525
      vertex 4.000000 0.000000 -6.500000
      vertex 4.650000 0.881678 -6.213525
    endloop
  endfacet
  facet normal 0.000000 0.309017 0.951056
    outer loop
      vertex 4.650000 -0.881678 -6.213525
      vertex 4.650000 0.000000 -6.500000
      vertex 4.000000 0.000000 -6.500000
    endloop
  endfacet
  facet normal 0.000000 0.309017 0.951056
    outer loop
      vertex 3.860356 -0.881678 -6.213525
      vertex 4.650000 -0.881678 -6.213525
      vertex 4.000000 0.000000 -6.500000
    endloop
  endfacet
  facet normal -0.000000 0.809017 0.587785
    outer loop
      vertex 4.650000 -0.881678 -6.213525
      vertex 3.860356 -0.881678 -6.213525
      vertex 4.650000 -1.426585 -5.463525
    endloop
  endfacet
  facet normal -0.000000 0.809017 0.587785
    outer loop
      vertex 4.650000 -1.426585 -5.463525
      vertex 3.860356 -0.881678 -6.213525
      vertex 3.804226 -1.236068 -5.725749
    endloop
  endfacet
  facet normal -0.000000 0.809017 0.587785
    outer loop
      vertex 4.650000 -1.426585 -5.463525
      vertex 3.804226 -1.236068 -5.725749
      vertex 3.707153 -1.426585 -5.463525
    endloop
  endfacet
  facet normal 0.000000 1.000000 0.000000
    outer loop
      vertex 4.650000 -1.426585 -4.536475
      vertex 4.650000 -1.426585 -5.463525
      vertex 3.707153 -1.426585 -4.536475
    endloop
  endfacet
  facet normal 0.000000 1.000000 -0.000000
    outer loop
      vertex 3.707153 -1.426585 -4.536475
      vertex 4.650000 -1.426585 -5.463525
      vertex 3.707153 -1.426585 -5.463525
    endloop
  endfacet
  facet normal 0.000000 0.809017 -0.587785
    outer loop
      vertex 3.838238 -1.021322 -3.978678
      vertex 4.650000 -1.021322 -3.978678
      vertex 3.804226 -1.236068 -4.274251
    endloop
  endfacet
  facet normal -0.000000 0.809017 -0.587785
    outer loop
      vertex 3.804226 -1.236068 -4.274251
      vertex 4.650000 -1.021322 -3.978678
      vertex 4.650000 -1.426585 -4.536475
    endloop
  endfacet
  facet normal 0.000000 0.809017 -0.587785
    outer loop
      vertex 3.804226 -1.236068 -4.274251
      vertex 4.650000 -1.426585 -4.536475
      vertex 3.707153 -1.426585 -4.536475
    endloop
  endfacet
  facet normal -0.987688 0.156435 0.000000
    outer loop
      vertex 4.000000 0.000000 0.000000
      vertex 4.000000 0.000000 -3.379375
      vertex 3.804226 -1.236068 0.000000
    endloop
  endfacet
  facet normal -0.987688 0.156435 0.000000
    outer loop
      vertex 3.804226 -1.236068 0.000000
      vertex 4.000000 0.000000 -3.379375
      vertex 3.920698 -0.500695 -3.379375
    endloop
  endfacet
  facet normal -0.987688 0.156435 0.000000
    outer loop
      vertex 3.804226 -1.236068 0.000000
      vertex 3.920698 -0.500695 -3.379375
      vertex 3.832008 -1.060660 -3.939340
    endloop
  endfacet
  facet normal -0.987688 0.156435 0.000000
    outer loop
      vertex 3.832008 -1.060660 -3.939340
      vertex 3.838238 -1.021322 -3.978678
      vertex 3.804226 -1.236068 -4.274251
    endloop
  endfacet
  facet normal -0.987688 0.156435 0.000000
    outer loop
      vertex 3.832008 -1.060660 -3.939340
      vertex 3.804226 -1.236068 -4.274251
      vertex 3.804226 -1.236068 0.000000
    endloop
  endfacet
  facet normal 0.707107 0.000000 -0.707107
    outer loop
      vertex 6.000000 -2.750000 0.000000
      vertex 4.650000 -2.750000 -1.350000
      vertex 4.650000 2.750000 -1.350000
    endloop
  endfacet
  facet normal 0.707107 0.000000 -0.707107
    outer loop
      vertex 6.000000 2.750000 0.000000
      vertex 6.000000 -2.750000 0.000000
      vertex 4.650000 2.750000 -1.350000
    endloop
  endfacet
  facet normal 0.000000 -0.707107 0.707107
    outer loop
      vertex 3.838238 1.021322 -3.978678
      vertex 4.650000 1.021322 -3.978678
      vertex 4.650000 1.060660 -3.939340
    endloop
  endfacet
  facet normal 0.000000 -0.707107 0.707107
    outer loop
      vertex 3.832008 1.060660 -3.939340
      vertex 3.838238 1.021322 -3.978678
      vertex 4.650000 1.060660 -3.939340
    endloop
  endfacet
  facet normal 0.000000 -0.707107 -0.707107
    outer loop
      vertex 4.650000 1.060660 -3.939340
      vertex 4.650000 0.500695 -3.379375
      vertex 3.920698 0.500695 -3.379375
    endloop
  endfacet
  facet normal -0.000000 -0.707107 -0.707107
    outer loop
      vertex 3.832008 1.060660 -3.939340
      vertex 4.650000 1.060660 -3.939340
      vertex 3.920698 0.500695 -3.379375
    endloop
  endfacet
  facet normal 0.000000 0.000000 -1.000000
    outer loop
      vertex 4.650000 -0.500695 -3.379375
      vertex 3.920698 -0.500695 -3.379375
      vertex 4.650000 0.500695 -3.379375
    endloop
  endfacet
  facet normal 0.000000 0.000000 -1.000000
    outer loop
      vertex 4.650000 0.500695 -3.379375
      vertex 3.920698 -0.500695 -3.379375
      vertex 4.000000 0.000000 -3.379375
    endloop
  endfacet
  facet normal 0.000000 0.000000 -1.000000
    outer loop
      vertex 4.650000 0.500695 -3.379375
      vertex 4.000000 0.000000 -3.379375
      vertex 3.920698 0.500695 -3.379375
    endloop
  endfacet
  facet normal 0.000000 0.707107 -0.707107
    outer loop
      vertex 4.650000 -0.500695 -3.379375
      vertex 4.650000 -1.060660 -3.939340
      vertex 3.920698 -0.500695 -3.379375
    endloop
  endfacet
  facet normal 0.000000 0.707107 -0.707107
    outer loop
      vertex 3.920698 -0.500695 -3.379375
      vertex 4.650000 -1.060660 -3.939340
      vertex 3.832008 -1.060660 -3.939340
    endloop
  endfacet
  facet normal -0.000000 0.707107 0.707107
    outer loop
      vertex 4.650000 -1.021322 -3.978678
      vertex 3.838238 -1.021322 -3.978678
      vertex 4.650000 -1.060660 -3.939340
    endloop
  endfacet
  facet normal -0.000000 0.707107 0.707107
    outer loop
      vertex 4.650000 -1.060660 -3.939340
      vertex 3.838238 -1.021322 -3.978678
      vertex 3.832008 -1.060660 -3.939340
    endloop
  endfacet
  facet normal -0.707107 -0.000000 -0.707107
    outer loop
      vertex 6.000000 -2.750000 0.000000
      vertex 6.000000 2.750000 0.000000
      vertex 7.350000 -2.750000 -1.350000
    endloop
  endfacet
  facet normal -0.707107 -0.000000 -0.707107
    outer loop
      vertex 7.350000 -2.750000 -1.350000
      vertex 6.000000 2.750000 0.000000
      vertex 7.350000 2.750000 -1.350000
    endloop
  endfacet
  facet normal 1.000000 -0.000000 -0.000000
    outer loop
      vertex -10.973721 7.339746 0.000000
      vertex -10.973721 4.727241 9.750000
      vertex -10.973721 -4.727241 9.750000
    endloop
  endfacet
  facet normal 1.000000 -0.000000 0.000000
    outer loop
      vertex -10.973721 -7.339746 0.000000
      vertex -10.973721 7.339746 0.000000
      vertex -10.973721 -4.727241 9.750000
    endloop
  endfacet
  facet normal 0.000000 0.965926 -0.258819
    outer loop
      vertex -10.973721 -7.339746 0.000000
      vertex -10.973721 -4.727241 9.750000
      vertex -7.339746 -7.339746 0.000000
    endloop
  endfacet
  facet normal 0.000000 0.965926 -0.258819
    outer loop
      vertex -7.339746 -7.339746 0.000000
      vertex -10.973721 -4.727241 9.750000
      vertex -4.727241 -4.727241 9.750000
    endloop
  endfacet
  facet normal 0.965926 0.000000 -0.258819
    outer loop
      vertex -4.727241 -10.973721 9.750000
      vertex -7.339746 -10.973721 0.000000
      vertex -7.339746 -7.339746 0.000000
    endloop
  endfacet
  facet normal 0.965926 0.000000 -0.258819
    outer loop
      vertex -4.727241 -4.727241 9.750000
      vertex -4.727241 -10.973721 9.750000
      vertex -7.339746 -7.339746 0.000000
    endloop
  endfacet
  facet normal 0.000000 1.000000 -0.000000
    outer loop
      vertex 4.727241 -10.973721 9.750000
      vertex 7.339746 -10.973721 0.000000
      vertex -4.727241 -10.973721 9.750000
    endloop
  endfacet
  facet normal 0.000000 1.000000 -0.000000
    outer loop
      vertex -4.727241 -10.973721 9.750000
      vertex 7.339746 -10.973721 0.000000
      vertex -7.339746 -10.973721 0.000000
    endloop
  endfacet
  facet normal -0.965926 -0.000000 -0.258819
    outer loop
      vertex 4.727241 -10.973721 9.750000
      vertex 4.727241 -4.727241 9.750000
      vertex 7.339746 -10.973721 0.000000
    endloop
  endfacet
  facet normal -0.965926 -0.000000 -0.258819
    outer loop
      vertex 7.339746 -10.973721 0.000000
      vertex 4.727241 -4.727241 9.750000
      vertex 7.339746 -7.339746 0.000000
    endloop
  endfacet
  facet normal 0.000000 0.965926 -0.258819
    outer loop
      vertex 4.727241 -4.727241 9.750000
      vertex 10.973721 -4.727241 9.750000
      vertex 7.339746 -7.339746 0.000000
    endloop
  endfacet
  facet normal 0.000000 0.965926 -0.258819
    outer loop
      vertex 7.339746 -7.339746 0.000000
      vertex 10.973721 -4.727241 9.750000
      vertex 10.973721 -7.339746 0.000000
    endloop
  endfacet
  facet normal -1.000000 0.000000 0.000000
    outer loop
      vertex 10.973721 4.727241 9.750000
      vertex 10.973721 7.339746 0.000000
      vertex 10.973721 -4.727241 9.750000
    endloop
  endfacet
  facet normal -1.000000 0.000000 -0.000000
    outer loop
      vertex 10.973721 -4.727241 9.750000
      vertex 10.973721 7.339746 0.000000
      vertex 10.973721 -7.339746 0.000000
    endloop
  endfacet
  facet normal 0.000000 -0.965926 -0.258819
    outer loop
      vertex 10.973721 4.727241 9.750000
      vertex 4.727241 4.727241 9.750000
      vertex 7.339746 7.339746 0.000000
    endloop
  endfacet
  facet normal 0.000000 -0.965926 -0.258819
    outer loop
      vertex 10.973721 7.339746 0.000000
      vertex 10.973721 4.727241 9.750000
      vertex 7.339746 7.339746 0.000000
    endloop
  endfacet
  facet normal -0.965926 -0.000000 -0.258819
    outer loop
      vertex 4.727241 4.727241 9.750000
      vertex 4.727241 10.973721 9.750000
      vertex 7.339746 7.339746 0.000000
    endloop
  endfacet
  facet normal -0.965926 -0.000000 -0.258819
    outer loop
      vertex 7.339746 7.339746 0.000000
      vertex 4.727241 10.973721 9.750000
      vertex 7.339746 10.973721 0.000000
    endloop
  endfacet
  facet normal 0.000000 -1.000000 0.000000
    outer loop
      vertex 7.339746 10.973721 0.000000
      vertex 4.727241 10.973721 9.750000
      vertex -4.727241 10.973721 9.750000
    endloop
  endfacet
  facet normal -0.000000 -1.000000 0.000000
    outer loop
      vertex -7.339746 10.973721 0.000000
      vertex 7.339746 10.973721 0.000000
      vertex -4.727241 10.973721 9.750000
    endloop
  endfacet
  facet normal 0.965926 0.000000 -0.258819
    outer loop
      vertex -4.727241 4.727241 9.750000
      vertex -7.339746 7.339746 0.000000
      vertex -7.339746 10.973721 0.000000
    endloop
  endfacet
  facet normal 0.965926 0.000000 -0.258819
    outer loop
      vertex -4.727241 10.973721 9.750000
      vertex -4.727241 4.727241 9.750000
      vertex -7.339746 10.973721 0.000000
    endloop
  endfacet
  facet normal 0.000000 -0.965926 -0.258819
    outer loop
      vertex -4.727241 4.727241 9.750000
      vertex -10.973721 4.727241 9.750000
      vertex -10.973721 7.339746 0.000000
    endloop
  endfacet
  facet normal 0.000000 -0.965926 -0.258819
    outer loop
      vertex -7.339746 7.339746 0.000000
      vertex -4.727241 4.727241 9.750000
      vertex -10.973721 7.339746 0.000000
    endloop
  endfacet
endsolid OpenSCAD_Model
