999
DXF created by Inkscape
  0
SECTION
  2
HEADER
  9
$ACADVER
  1
AC1014
  9
$HANDSEED
  5
FFFF
  9
$MEASUREMENT
 70
     1
  0
ENDSEC
  0
SECTION
  2
TABLES
  0
TABLE
  2
VPORT
  5
8
330
0
100
AcDbSymbolTable
 70
     4
  0
VPORT
  5
2E
330
8
100
AcDbSymbolTableRecord
100
AcDbViewportTableRecord
  2
*ACTIVE
 70
     0
 10
0.0
 20
0.0
 11
1.0
 21
1.0
 12
210.0
 22
148.5
 13
0.0
 23
0.0
 14
10.0
 24
10.0
 15
10.0
 25
10.0
 16
0.0
 26
0.0
 36
1.0
 17
0.0
 27
0.0
 37
0.0
 40
341.0
 41
1.24
 42
50.0
 43
0.0
 44
0.0
 50
0.0
 51
0.0
 71
     0
 72
   100
 73
     1
 74
     3
 75
     0
 76
     0
 77
     0
 78
     0
  0
ENDTAB
  0
TABLE
  2
LTYPE
  5
5
330
0
100
AcDbSymbolTable
 70
     1
  0
LTYPE
  5
14
330
5
100
AcDbSymbolTableRecord
100
AcDbLinetypeTableRecord
  2
BYBLOCK
 70
     0
  3

 72
    65
 73
     0
 40
0.0
  0
LTYPE
  5
15
330
5
100
AcDbSymbolTableRecord
100
AcDbLinetypeTableRecord
  2
BYLAYER
 70
     0
  3

 72
    65
 73
     0
 40
0.0
  0
LTYPE
  5
16
330
5
100
AcDbSymbolTableRecord
100
AcDbLinetypeTableRecord
  2
CONTINUOUS
 70
     0
  3
Solid line
 72
    65
 73
     0
 40
0.0
  0
ENDTAB
  0
TABLE
  2
LAYER
  5
2
100
AcDbSymbolTable
 70
2
  0
LAYER
  5
50
100
AcDbSymbolTableRecord
100
AcDbLayerTableRecord
  2
0
 70
0
  6
CONTINUOUS
  0
LAYER
  5
51
100
AcDbSymbolTableRecord
100
AcDbLayerTableRecord
  2
Layer_1
 70
0
  6
CONTINUOUS
  0
ENDTAB
  0
TABLE
  2
STYLE
  5
3
330
0
100
AcDbSymbolTable
 70
     1
  0
STYLE
  5
11
330
3
100
AcDbSymbolTableRecord
100
AcDbTextStyleTableRecord
  2
STANDARD
 70
     0
 40
0.0
 41
1.0
 50
0.0
 71
     0
 42
2.5
  3
txt
  4

  0
ENDTAB
  0
TABLE
  2
VIEW
  5
6
330
0
100
AcDbSymbolTable
 70
     0
  0
ENDTAB
  0
TABLE
  2
UCS
  5
7
330
0
100
AcDbSymbolTable
 70
     0
  0
ENDTAB
  0
TABLE
  2
APPID
  5
9
330
0
100
AcDbSymbolTable
 70
     2
  0
APPID
  5
12
330
9
100
AcDbSymbolTableRecord
100
AcDbRegAppTableRecord
  2
ACAD
 70
     0
  0
ENDTAB
  0
TABLE
  2
DIMSTYLE
  5
A
330
0
100
AcDbSymbolTable
 70
     1
  0
DIMSTYLE
105
27
330
A
100
AcDbSymbolTableRecord
100
AcDbDimStyleTableRecord
  2
ISO-25
 70
     0
  3

  4

  5

  6

  7

 40
1.0
 41
2.5
 42
0.625
 43
3.75
 44
1.25
 45
0.0
 46
0.0
 47
0.0
 48
0.0
140
2.5
141
2.5
142
0.0
143
0.03937007874016
144
1.0
145
0.0
146
1.0
147
0.625
 71
     0
 72
     0
 73
     0
 74
     0
 75
     0
 76
     0
 77
     1
 78
     8
170
     0
171
     3
172
     1
173
     0
174
     0
175
     0
176
     0
177
     0
178
     0
270
     2
271
     2
272
     2
273
     2
274
     3
340
11
275
     0
280
     0
281
     0
282
     0
283
     0
284
     8
285
     0
286
     0
287
     3
288
     0
  0
ENDTAB
  0
TABLE
  2
BLOCK_RECORD
  5
1
330
0
100
AcDbSymbolTable
 70
     1
  0
BLOCK_RECORD
  5
1F
330
1
100
AcDbSymbolTableRecord
100
AcDbBlockTableRecord
  2
*MODEL_SPACE
  0
BLOCK_RECORD
  5
1B
330
1
100
AcDbSymbolTableRecord
100
AcDbBlockTableRecord
  2
*PAPER_SPACE
  0
ENDTAB
  0
ENDSEC
  0
SECTION
  2
BLOCKS
  0
BLOCK
  5
20
330
1F
100
AcDbEntity
  8
0
100
AcDbBlockBegin
  2
*MODEL_SPACE
 70
     0
 10
0.0
 20
0.0
 30
0.0
  3
*MODEL_SPACE
  1

  0
ENDBLK
  5
21
330
1F
100
AcDbEntity
  8
0
100
AcDbBlockEnd
  0
BLOCK
  5
1C
330
1B
100
AcDbEntity
 67
     1
  8
0
100
AcDbBlockBegin
  2
*PAPER_SPACE
  1

  0
ENDBLK
  5
1D
330
1B
100
AcDbEntity
 67
     1
  8
0
100
AcDbBlockEnd
  0
ENDSEC
  0
SECTION
  2
ENTITIES
  0
LWPOLYLINE
  5
100
100
AcDbEntity
  8
Layer_1
 62
7
100
AcDbPolyline
 90
15
 70
0
 10
38.236458
 20
280.514185
 30
0.0
 10
39.618322
 20
280.689535
 30
0.0
 10
40.540685
 20
281.215623
 30
0.0
 10
41.070115
 20
282.143068
 30
0.0
 10
41.246606
 20
283.522572
 30
0.0
 10
41.070115
 20
284.886465
 30
0.0
 10
40.540685
 20
285.798346
 30
0.0
 10
39.618322
 20
286.312720
 30
0.0
 10
38.236458
 20
286.484196
 30
0.0
 10
37.157600
 20
286.484196
 30
0.0
 10
36.078741
 20
286.484196
 30
0.0
 10
36.078741
 20
283.499191
 30
0.0
 10
36.078741
 20
280.514185
 30
0.0
 10
37.157600
 20
280.514185
 30
0.0
 10
38.236458
 20
280.514185
 30
0.0
  0
LWPOLYLINE
  5
101
100
AcDbEntity
  8
Layer_1
 62
7
100
AcDbPolyline
 90
33
 70
0
 10
36.078741
 20
276.367912
 30
0.0
 10
36.078741
 20
271.964444
 30
0.0
 10
36.078741
 20
267.560977
 30
0.0
 10
33.514789
 20
267.560977
 30
0.0
 10
30.950836
 20
267.560977
 30
0.0
 10
30.950836
 20
279.197042
 30
0.0
 10
30.950836
 20
290.833108
 30
0.0
 10
34.866690
 20
290.833108
 30
0.0
 10
38.782547
 20
290.833108
 30
0.0
 10
42.185601
 20
290.447300
 30
0.0
 10
44.536455
 20
289.289946
 30
0.0
 10
45.914985
 20
287.298628
 30
0.0
 10
46.374509
 20
284.411059
 30
0.0
 10
46.134751
 20
282.310634
 30
0.0
 10
45.415525
 20
280.623298
 30
0.0
 10
44.226771
 20
279.337321
 30
0.0
 10
42.551891
 20
278.441049
 30
0.0
 10
43.547491
 20
277.981210
 30
0.0
 10
44.429901
 20
277.162874
 30
0.0
 10
45.272330
 20
275.923662
 30
0.0
 10
46.121443
 20
274.170075
 30
0.0
 10
47.513304
 20
270.865526
 30
0.0
 10
48.905165
 20
267.560977
 30
0.0
 10
46.174721
 20
267.560977
 30
0.0
 10
43.444279
 20
267.560977
 30
0.0
 10
42.232228
 20
270.452457
 30
0.0
 10
41.020177
 20
273.343938
 30
0.0
 10
40.280952
 20
274.813054
 30
0.0
 10
39.528425
 20
275.728824
 30
0.0
 10
38.656007
 20
276.208133
 30
0.0
 10
37.530540
 20
276.367912
 30
0.0
 10
36.804641
 20
276.367912
 30
0.0
 10
36.078741
 20
276.367912
 30
0.0
  0
LWPOLYLINE
  5
102
100
AcDbEntity
  8
Layer_1
 62
7
100
AcDbPolyline
 90
31
 70
0
 10
66.619744
 20
276.336737
 30
0.0
 10
66.619744
 20
275.541775
 30
0.0
 10
66.619744
 20
274.746812
 30
0.0
 10
61.045646
 20
274.746812
 30
0.0
 10
55.471545
 20
274.746812
 30
0.0
 10
55.861127
 20
273.028287
 30
0.0
 10
56.683596
 20
271.800775
 30
0.0
 10
57.928938
 20
271.064264
 30
0.0
 10
59.587187
 20
270.818763
 30
0.0
 10
61.108902
 20
270.947360
 30
0.0
 10
62.663931
 20
271.333151
 30
0.0
 10
64.268889
 20
271.995616
 30
0.0
 10
65.913823
 20
272.923075
 30
0.0
 10
65.913823
 20
270.772001
 30
0.0
 10
65.913823
 20
268.620926
 30
0.0
 10
64.222270
 20
267.966251
 30
0.0
 10
62.530740
 20
267.498627
 30
0.0
 10
60.839187
 20
267.206361
 30
0.0
 10
59.147655
 20
267.108939
 30
0.0
 10
55.548127
 20
267.709057
 30
0.0
 10
52.847655
 20
269.509414
 30
0.0
 10
51.169430
 20
272.408684
 30
0.0
 10
50.610026
 20
276.274387
 30
0.0
 10
51.159444
 20
280.089417
 30
0.0
 10
52.807699
 20
282.992597
 30
0.0
 10
55.431583
 20
284.828012
 30
0.0
 10
58.881269
 20
285.439834
 30
0.0
 10
62.044578
 20
284.820218
 30
0.0
 10
64.501987
 20
282.961422
 30
0.0
 10
66.090291
 20
280.066036
 30
0.0
 10
66.619744
 20
276.336737
 30
0.0
  0
LWPOLYLINE
  5
103
100
AcDbEntity
  8
Layer_1
 62
7
100
AcDbPolyline
 90
11
 70
0
 10
61.718265
 20
278.191649
 30
0.0
 10
61.518469
 20
279.625689
 30
0.0
 10
60.919111
 20
280.747998
 30
0.0
 10
60.010068
 20
281.484497
 30
0.0
 10
58.854631
 20
281.730010
 30
0.0
 10
57.599286
 20
281.500084
 30
0.0
 10
56.603681
 20
280.810348
 30
0.0
 10
55.901086
 20
279.703627
 30
0.0
 10
55.524822
 20
278.191649
 30
0.0
 10
58.621544
 20
278.191649
 30
0.0
 10
61.718265
 20
278.191649
 30
0.0
  0
LWPOLYLINE
  5
104
100
AcDbEntity
  8
Layer_1
 62
7
100
AcDbPolyline
 90
27
 70
0
 10
74.984224
 20
270.086151
 30
0.0
 10
74.984224
 20
265.503428
 30
0.0
 10
74.984224
 20
260.920705
 30
0.0
 10
72.600081
 20
260.920705
 30
0.0
 10
70.215938
 20
260.920705
 30
0.0
 10
70.215938
 20
272.969838
 30
0.0
 10
70.215938
 20
285.018972
 30
0.0
 10
72.600081
 20
285.018972
 30
0.0
 10
74.984224
 20
285.018972
 30
0.0
 10
74.984224
 20
283.740797
 30
0.0
 10
74.984224
 20
282.462623
 30
0.0
 10
76.023118
 20
283.787547
 30
0.0
 10
77.168576
 20
284.707222
 30
0.0
 10
78.457204
 20
285.256668
 30
0.0
 10
79.925659
 20
285.439834
 30
0.0
 10
82.436324
 20
284.796837
 30
0.0
 10
84.454198
 20
282.867897
 30
0.0
 10
85.782779
 20
279.941335
 30
0.0
 10
86.225656
 20
276.274387
 30
0.0
 10
85.782779
 20
272.603528
 30
0.0
 10
84.454198
 20
269.665288
 30
0.0
 10
82.436324
 20
267.748027
 30
0.0
 10
79.925659
 20
267.108939
 30
0.0
 10
78.457204
 20
267.288195
 30
0.0
 10
77.168576
 20
267.825964
 30
0.0
 10
76.023118
 20
268.757316
 30
0.0
 10
74.984224
 20
270.086151
 30
0.0
  0
LWPOLYLINE
  5
105
100
AcDbEntity
  8
Layer_1
 62
7
100
AcDbPolyline
 90
17
 70
0
 10
78.154201
 20
281.387085
 30
0.0
 10
76.798962
 20
281.055841
 30
0.0
 10
75.796696
 20
280.062148
 30
0.0
 10
75.187335
 20
278.460525
 30
0.0
 10
74.984224
 20
276.274387
 30
0.0
 10
75.187341
 20
274.084339
 30
0.0
 10
75.796696
 20
272.471038
 30
0.0
 10
76.798962
 20
271.489023
 30
0.0
 10
78.154201
 20
271.161688
 30
0.0
 10
79.502766
 20
271.489025
 30
0.0
 10
80.485066
 20
272.471038
 30
0.0
 10
81.094412
 20
274.076545
 30
0.0
 10
81.297539
 20
276.274387
 30
0.0
 10
81.094412
 20
278.472215
 30
0.0
 10
80.485066
 20
280.077736
 30
0.0
 10
79.502766
 20
281.059738
 30
0.0
 10
78.154201
 20
281.387085
 30
0.0
  0
LWPOLYLINE
  5
106
100
AcDbEntity
  8
Layer_1
 62
7
100
AcDbPolyline
 90
15
 70
0
 10
97.267298
 20
280.514185
 30
0.0
 10
98.649159
 20
280.689535
 30
0.0
 10
99.571525
 20
281.215623
 30
0.0
 10
100.100955
 20
282.143068
 30
0.0
 10
100.277446
 20
283.522572
 30
0.0
 10
100.100955
 20
284.886465
 30
0.0
 10
99.571525
 20
285.798346
 30
0.0
 10
98.649159
 20
286.312720
 30
0.0
 10
97.267298
 20
286.484196
 30
0.0
 10
96.188440
 20
286.484196
 30
0.0
 10
95.109582
 20
286.484196
 30
0.0
 10
95.109582
 20
283.499191
 30
0.0
 10
95.109582
 20
280.514185
 30
0.0
 10
96.188440
 20
280.514185
 30
0.0
 10
97.267298
 20
280.514185
 30
0.0
  0
LWPOLYLINE
  5
107
100
AcDbEntity
  8
Layer_1
 62
7
100
AcDbPolyline
 90
33
 70
0
 10
95.109582
 20
276.367912
 30
0.0
 10
95.109582
 20
271.964444
 30
0.0
 10
95.109582
 20
267.560977
 30
0.0
 10
92.545629
 20
267.560977
 30
0.0
 10
89.981679
 20
267.560977
 30
0.0
 10
89.981679
 20
279.197042
 30
0.0
 10
89.981679
 20
290.833108
 30
0.0
 10
93.897533
 20
290.833108
 30
0.0
 10
97.813387
 20
290.833108
 30
0.0
 10
101.216441
 20
290.447300
 30
0.0
 10
103.567295
 20
289.289946
 30
0.0
 10
104.945825
 20
287.298628
 30
0.0
 10
105.405351
 20
284.411059
 30
0.0
 10
105.165591
 20
282.310634
 30
0.0
 10
104.446365
 20
280.623298
 30
0.0
 10
103.257611
 20
279.337321
 30
0.0
 10
101.582731
 20
278.441049
 30
0.0
 10
102.578331
 20
277.981210
 30
0.0
 10
103.460741
 20
277.162874
 30
0.0
 10
104.303170
 20
275.923662
 30
0.0
 10
105.152284
 20
274.170075
 30
0.0
 10
106.544144
 20
270.865526
 30
0.0
 10
107.936005
 20
267.560977
 30
0.0
 10
105.205563
 20
267.560977
 30
0.0
 10
102.475119
 20
267.560977
 30
0.0
 10
101.263071
 20
270.452457
 30
0.0
 10
100.051020
 20
273.343938
 30
0.0
 10
99.311792
 20
274.813054
 30
0.0
 10
98.559265
 20
275.728824
 30
0.0
 10
97.686847
 20
276.208133
 30
0.0
 10
96.561380
 20
276.367912
 30
0.0
 10
95.835481
 20
276.367912
 30
0.0
 10
95.109582
 20
276.367912
 30
0.0
  0
LWPOLYLINE
  5
108
100
AcDbEntity
  8
Layer_1
 62
7
100
AcDbPolyline
 90
17
 70
0
 10
117.445938
 20
275.417074
 30
0.0
 10
116.137317
 20
275.268987
 30
0.0
 10
115.194988
 20
274.824750
 30
0.0
 10
114.635576
 20
274.092132
 30
0.0
 10
114.449111
 20
273.078950
 30
0.0
 10
114.598948
 20
272.132006
 30
0.0
 10
115.048477
 20
271.411088
 30
0.0
 10
115.777700
 20
270.966842
 30
0.0
 10
116.740020
 20
270.818763
 30
0.0
 10
117.978699
 20
271.099338
 30
0.0
 10
119.004288
 20
271.941063
 30
0.0
 10
119.693549
 20
273.219233
 30
0.0
 10
119.923315
 20
274.777987
 30
0.0
 10
119.923315
 20
275.097531
 30
0.0
 10
119.923315
 20
275.417074
 30
0.0
 10
118.684625
 20
275.417074
 30
0.0
 10
117.445938
 20
275.417074
 30
0.0
  0
LWPOLYLINE
  5
109
100
AcDbEntity
  8
Layer_1
 62
7
100
AcDbPolyline
 90
41
 70
0
 10
124.731560
 20
277.521386
 30
0.0
 10
124.731560
 20
272.541181
 30
0.0
 10
124.731560
 20
267.560977
 30
0.0
 10
122.327439
 20
267.560977
 30
0.0
 10
119.923315
 20
267.560977
 30
0.0
 10
119.923315
 20
268.854739
 30
0.0
 10
119.923315
 20
270.148501
 30
0.0
 10
118.904386
 20
268.772904
 30
0.0
 10
117.765601
 20
267.825964
 30
0.0
 10
116.437001
 20
267.288196
 30
0.0
 10
114.848687
 20
267.108939
 30
0.0
 10
112.747576
 20
267.502523
 30
0.0
 10
111.079346
 20
268.683276
 30
0.0
 10
110.000485
 20
270.507011
 30
0.0
 10
109.640868
 20
272.798375
 30
0.0
 10
110.090393
 20
275.459934
 30
0.0
 10
111.438965
 20
277.303161
 30
0.0
 10
113.763166
 20
278.378690
 30
0.0
 10
117.112957
 20
278.737211
 30
0.0
 10
118.518136
 20
278.737211
 30
0.0
 10
119.923315
 20
278.737211
 30
0.0
 10
119.923315
 20
278.955436
 30
0.0
 10
119.923315
 20
279.173661
 30
0.0
 10
119.700209
 20
280.319332
 30
0.0
 10
119.030927
 20
281.106510
 30
0.0
 10
117.888797
 20
281.574125
 30
0.0
 10
116.247208
 20
281.730010
 30
0.0
 10
114.768768
 20
281.640371
 30
0.0
 10
113.396891
 20
281.371498
 30
0.0
 10
112.124903
 20
280.923347
 30
0.0
 10
110.946153
 20
280.295961
 30
0.0
 10
110.946153
 20
282.423654
 30
0.0
 10
110.946153
 20
284.551347
 30
0.0
 10
112.481191
 20
284.933227
 30
0.0
 10
114.022896
 20
285.206022
 30
0.0
 10
115.567920
 20
285.381368
 30
0.0
 10
117.112957
 20
285.439834
 30
0.0
 10
120.585940
 20
284.972196
 30
0.0
 10
122.933463
 20
283.569335
 30
0.0
 10
124.282023
 20
281.129881
 30
0.0
 10
124.731560
 20
277.521386
 30
0.0
  0
LWPOLYLINE
  5
10a
100
AcDbEntity
  8
Layer_1
 62
7
100
AcDbPolyline
 90
27
 70
0
 10
133.961789
 20
270.086151
 30
0.0
 10
133.961789
 20
265.503428
 30
0.0
 10
133.961789
 20
260.920705
 30
0.0
 10
131.577646
 20
260.920705
 30
0.0
 10
129.193504
 20
260.920705
 30
0.0
 10
129.193504
 20
272.969838
 30
0.0
 10
129.193504
 20
285.018972
 30
0.0
 10
131.577646
 20
285.018972
 30
0.0
 10
133.961789
 20
285.018972
 30
0.0
 10
133.961789
 20
283.740797
 30
0.0
 10
133.961789
 20
282.462623
 30
0.0
 10
135.000683
 20
283.787547
 30
0.0
 10
136.146144
 20
284.707222
 30
0.0
 10
137.434772
 20
285.256668
 30
0.0
 10
138.903225
 20
285.439834
 30
0.0
 10
141.413890
 20
284.796837
 30
0.0
 10
143.431763
 20
282.867897
 30
0.0
 10
144.760345
 20
279.941335
 30
0.0
 10
145.203222
 20
276.274387
 30
0.0
 10
144.760345
 20
272.603528
 30
0.0
 10
143.431763
 20
269.665288
 30
0.0
 10
141.413890
 20
267.748027
 30
0.0
 10
138.903225
 20
267.108939
 30
0.0
 10
137.434772
 20
267.288195
 30
0.0
 10
136.146144
 20
267.825964
 30
0.0
 10
135.000683
 20
268.757316
 30
0.0
 10
133.961789
 20
270.086151
 30
0.0
  0
LWPOLYLINE
  5
10b
100
AcDbEntity
  8
Layer_1
 62
7
100
AcDbPolyline
 90
17
 70
0
 10
137.131766
 20
281.387085
 30
0.0
 10
135.776528
 20
281.055841
 30
0.0
 10
134.774262
 20
280.062148
 30
0.0
 10
134.164901
 20
278.460525
 30
0.0
 10
133.961789
 20
276.274387
 30
0.0
 10
134.164909
 20
274.084339
 30
0.0
 10
134.774262
 20
272.471038
 30
0.0
 10
135.776528
 20
271.489023
 30
0.0
 10
137.131766
 20
271.161688
 30
0.0
 10
138.480331
 20
271.489025
 30
0.0
 10
139.462632
 20
272.471038
 30
0.0
 10
140.071977
 20
274.076545
 30
0.0
 10
140.275107
 20
276.274387
 30
0.0
 10
140.071977
 20
278.472215
 30
0.0
 10
139.462632
 20
280.077736
 30
0.0
 10
138.480331
 20
281.059738
 30
0.0
 10
137.131766
 20
281.387085
 30
0.0
  0
LWPOLYLINE
  5
10c
100
AcDbEntity
  8
Layer_1
 62
7
100
AcDbPolyline
 90
7
 70
0
 10
158.442542
 20
290.833108
 30
0.0
 10
163.570447
 20
290.833108
 30
0.0
 10
163.570447
 20
272.096938
 30
0.0
 10
172.574247
 20
272.096938
 30
0.0
 10
172.574247
 20
267.560977
 30
0.0
 10
158.442542
 20
267.560977
 30
0.0
 10
158.442542
 20
290.833108
 30
0.0
  0
LWPOLYLINE
  5
10d
100
AcDbEntity
  8
Layer_1
 62
7
100
AcDbPolyline
 90
37
 70
0
 10
180.805537
 20
289.975795
 30
0.0
 10
180.805537
 20
287.497384
 30
0.0
 10
180.805537
 20
285.018972
 30
0.0
 10
183.262935
 20
285.018972
 30
0.0
 10
185.720334
 20
285.018972
 30
0.0
 10
185.720334
 20
283.023772
 30
0.0
 10
185.720334
 20
281.028573
 30
0.0
 10
183.262935
 20
281.028573
 30
0.0
 10
180.805537
 20
281.028573
 30
0.0
 10
180.805537
 20
277.326543
 30
0.0
 10
180.805537
 20
273.624512
 30
0.0
 10
180.908755
 20
272.603528
 30
0.0
 10
181.218434
 20
271.972238
 30
0.0
 10
181.834442
 20
271.656588
 30
0.0
 10
182.856699
 20
271.551375
 30
0.0
 10
184.082068
 20
271.551375
 30
0.0
 10
185.307437
 20
271.551375
 30
0.0
 10
185.307437
 20
269.556176
 30
0.0
 10
185.307437
 20
267.560977
 30
0.0
 10
183.262935
 20
267.560977
 30
0.0
 10
181.218434
 20
267.560977
 30
0.0
 10
178.804318
 20
267.903901
 30
0.0
 10
177.209343
 20
268.932676
 30
0.0
 10
176.330273
 20
270.799277
 30
0.0
 10
176.037251
 20
273.624512
 30
0.0
 10
176.037251
 20
277.326543
 30
0.0
 10
176.037251
 20
281.028573
 30
0.0
 10
174.851839
 20
281.028573
 30
0.0
 10
173.666426
 20
281.028573
 30
0.0
 10
173.666426
 20
283.023772
 30
0.0
 10
173.666426
 20
285.018972
 30
0.0
 10
174.851839
 20
285.018972
 30
0.0
 10
176.037251
 20
285.018972
 30
0.0
 10
176.037251
 20
287.497384
 30
0.0
 10
176.037251
 20
289.975795
 30
0.0
 10
178.421394
 20
289.975795
 30
0.0
 10
180.805537
 20
289.975795
 30
0.0
  0
LWPOLYLINE
  5
10e
100
AcDbEntity
  8
Layer_1
 62
7
100
AcDbPolyline
 90
27
 70
0
 10
198.799817
 20
282.462623
 30
0.0
 10
198.799817
 20
287.138871
 30
0.0
 10
198.799817
 20
291.815120
 30
0.0
 10
201.197281
 20
291.815120
 30
0.0
 10
203.594742
 20
291.815120
 30
0.0
 10
203.594742
 20
279.688048
 30
0.0
 10
203.594742
 20
267.560977
 30
0.0
 10
201.197281
 20
267.560977
 30
0.0
 10
198.799817
 20
267.560977
 30
0.0
 10
198.799817
 20
268.823564
 30
0.0
 10
198.799817
 20
270.086151
 30
0.0
 10
197.764239
 20
268.749522
 30
0.0
 10
196.628783
 20
267.825964
 30
0.0
 10
195.350131
 20
267.288192
 30
0.0
 10
193.885020
 20
267.108939
 30
0.0
 10
191.374340
 20
267.748026
 30
0.0
 10
189.356482
 20
269.665288
 30
0.0
 10
188.027887
 20
272.603528
 30
0.0
 10
187.585023
 20
276.274387
 30
0.0
 10
188.027887
 20
279.941335
 30
0.0
 10
189.356482
 20
282.867897
 30
0.0
 10
191.374340
 20
284.796837
 30
0.0
 10
193.885020
 20
285.439834
 30
0.0
 10
195.340140
 20
285.256668
 30
0.0
 10
196.615462
 20
284.707222
 30
0.0
 10
197.760908
 20
283.787547
 30
0.0
 10
198.799817
 20
282.462623
 30
0.0
  0
LWPOLYLINE
  5
10f
100
AcDbEntity
  8
Layer_1
 62
7
100
AcDbPolyline
 90
17
 70
0
 10
195.656479
 20
271.161688
 30
0.0
 10
197.005044
 20
271.489023
 30
0.0
 10
197.987345
 20
272.471038
 30
0.0
 10
198.596690
 20
274.076545
 30
0.0
 10
198.799817
 20
276.274387
 30
0.0
 10
198.596690
 20
278.472215
 30
0.0
 10
197.987345
 20
280.077736
 30
0.0
 10
197.005044
 20
281.059738
 30
0.0
 10
195.656479
 20
281.387085
 30
0.0
 10
194.314561
 20
281.059738
 30
0.0
 10
193.325613
 20
280.077736
 30
0.0
 10
192.726244
 20
278.472215
 30
0.0
 10
192.526458
 20
276.274387
 30
0.0
 10
192.726246
 20
274.076545
 30
0.0
 10
193.325613
 20
272.471038
 30
0.0
 10
194.314561
 20
271.489023
 30
0.0
 10
195.656479
 20
271.161688
 30
0.0
  0
LWPOLYLINE
  5
110
100
AcDbEntity
  8
Layer_1
 62
7
100
AcDbPolyline
 90
41
 70
0
 10
15.607806
 20
267.645268
 30
0.0
 10
14.131126
 20
267.988696
 30
0.0
 10
12.683977
 20
268.590368
 30
0.0
 10
11.327198
 20
269.419242
 30
0.0
 10
10.121630
 20
270.444280
 30
0.0
 10
8.101928
 20
273.319346
 30
0.0
 10
7.245727
 20
276.562660
 30
0.0
 10
7.574509
 20
279.905948
 30
0.0
 10
9.109756
 20
283.080936
 30
0.0
 10
9.719206
 20
283.821619
 30
0.0
 10
10.745533
 20
284.952766
 30
0.0
 10
12.045476
 20
286.320490
 30
0.0
 10
13.475774
 20
287.770898
 30
0.0
 10
14.353182
 20
288.643902
 30
0.0
 10
15.230590
 20
289.516905
 30
0.0
 10
16.107998
 20
290.389909
 30
0.0
 10
16.985406
 20
291.262912
 30
0.0
 10
17.986165
 20
290.265122
 30
0.0
 10
18.986923
 20
289.267332
 30
0.0
 10
19.987682
 20
288.269543
 30
0.0
 10
20.988441
 20
287.271753
 30
0.0
 10
23.171930
 20
285.071652
 30
0.0
 10
24.479966
 20
283.661191
 30
0.0
 10
25.239430
 20
282.658905
 30
0.0
 10
25.777201
 20
281.683328
 30
0.0
 10
26.541315
 20
279.701586
 30
0.0
 10
26.856015
 20
277.743860
 30
0.0
 10
26.723812
 20
275.755908
 30
0.0
 10
26.147214
 20
273.683486
 30
0.0
 10
25.664967
 20
272.711603
 30
0.0
 10
24.941765
 20
271.620504
 30
0.0
 10
24.102852
 20
270.581011
 30
0.0
 10
23.273475
 20
269.763950
 30
0.0
 10
21.587768
 20
268.651830
 30
0.0
 10
19.698933
 20
267.914378
 30
0.0
 10
17.680952
 20
267.572043
 30
0.0
 10
15.607806
 20
267.645268
 30
0.0
 10
15.607806
 20
267.645268
 30
0.0
 10
15.607806
 20
267.645268
 30
0.0
 10
15.607806
 20
267.645268
 30
0.0
 10
15.607806
 20
267.645268
 30
0.0
  0
ENDSEC
  0
SECTION
  2
OBJECTS
  0
DICTIONARY
  5
C
330
0
100
AcDbDictionary
  3
ACAD_GROUP
350
D
  3
ACAD_MLINESTYLE
350
17
  0
DICTIONARY
  5
D
330
C
100
AcDbDictionary
  0
DICTIONARY
  5
1A
330
C
100
AcDbDictionary
  0
DICTIONARY
  5
17
330
C
100
AcDbDictionary
  3
STANDARD
350
18
  0
DICTIONARY
  5
19
330
C
100
AcDbDictionary
  0
ENDSEC
  0
EOF
